<svg width="182" height="108" viewBox="0 0 182 108" fill="none" xmlns="http://www.w3.org/2000/svg">
<path d="M15.4862 57.3188C17.0919 59.4856 19.2421 61.1337 21.8757 62.2135C24.4858 63.2863 27.466 63.8286 30.7362 63.8286C34.1809 63.8286 37.246 63.2533 39.8466 62.1169C42.466 60.9734 44.5762 59.3064 46.1182 57.1656C47.6578 55.0271 48.5868 52.6316 48.8815 50.0475C49.1668 47.5224 49.313 43.1841 49.313 37.1506V26.8519C49.313 20.6675 49.1621 16.2703 48.8626 13.7852C48.5561 11.2365 47.5871 8.8457 45.9838 6.68364C44.3782 4.51686 42.2279 2.87114 39.5943 1.78893C36.9843 0.713793 34.004 0.171509 30.7362 0.171509C27.2915 0.171509 24.2264 0.746802 21.6258 1.88324C19.0064 3.02675 16.8962 4.69369 15.3542 6.83453C13.8122 8.97538 12.8833 11.3685 12.5909 13.955C12.3056 16.4754 12.1594 20.8137 12.1594 26.8519V37.1506C12.1594 43.3373 12.3103 47.7322 12.6098 50.2173C12.9163 52.766 13.8829 55.1568 15.4886 57.3188H15.4862ZM28.7533 17.3714C28.7533 13.4551 29.1093 12.3517 29.3215 12.0428C29.6634 11.543 30.1515 11.3001 30.8093 11.3001C31.8208 11.3001 32.1367 11.7976 32.2852 12.1725C32.4809 12.67 32.7167 13.9738 32.7167 17.3714V45.0302C32.7167 48.5079 32.5729 50.7242 32.2923 51.6178C32.0589 52.3558 31.552 52.7 30.6961 52.7C29.5974 52.7 29.2885 52.1813 29.1518 51.7899C28.9679 51.2641 28.751 49.7434 28.751 45.4758V17.3714H28.7533Z" fill="white"/>
<path d="M103.011 1.43643H84.0075C83.4086 1.43643 82.8993 1.88441 82.8239 2.47857L79.9804 24.7028C79.9568 24.8914 79.8154 24.9221 79.7329 24.9221H79.7305C79.648 24.9221 79.5089 24.8938 79.4829 24.7075L78.0211 14.6375C77.4222 10.0163 76.8281 5.9091 76.2622 2.43377C76.1679 1.85376 75.6728 1.43408 75.0834 1.43408H56.1647C55.5069 1.43408 54.9717 1.96929 54.9717 2.62946V61.373C54.9717 62.0308 55.5069 62.566 56.1647 62.566H68.4015C69.0593 62.566 69.5945 62.0308 69.5945 61.373L69.6086 32.4009C69.6086 32.1981 69.7548 32.1557 69.8421 32.1509C69.9293 32.1439 70.0802 32.1651 70.1085 32.3655L74.3289 61.5428C74.4137 62.1251 74.9207 62.566 75.5101 62.566H83.9556C84.5521 62.566 85.059 62.1204 85.1392 61.531L89.0672 32.224C89.0955 32.0213 89.244 32.0024 89.3336 32.0071C89.4209 32.0118 89.5671 32.0543 89.5671 32.257L89.5812 61.373C89.5812 62.0308 90.1164 62.566 90.7742 62.566H103.011C103.669 62.566 104.204 62.0308 104.204 61.373V2.62946C104.204 1.97165 103.669 1.43408 103.011 1.43408V1.43643Z" fill="white"/>
<path d="M169.531 1.86196C169.305 1.60968 168.982 1.46586 168.643 1.46586H155.498C154.906 1.46586 154.397 1.90912 154.314 2.49385C152.853 12.9269 151.686 23.6901 150.844 34.4815C150.827 34.6843 150.681 34.715 150.594 34.715C150.516 34.7079 150.361 34.6843 150.344 34.4839L149.406 21.7331C148.597 11.4132 148.062 4.95534 147.814 2.53629C147.75 1.92563 147.241 1.46586 146.626 1.46586H132.097C131.501 1.46586 130.992 1.91384 130.914 2.50563C129.36 14.3345 128.202 24.7157 127.474 33.3592C127.457 33.5573 127.311 33.5879 127.226 33.5879C127.139 33.5879 126.99 33.5573 126.976 33.3545L124.616 2.56694C124.569 1.9492 124.046 1.4635 123.425 1.4635H110.114C109.774 1.4635 109.449 1.60968 109.222 1.86196C108.996 2.1166 108.888 2.45376 108.928 2.79092L115.579 61.4755C115.647 62.0791 116.157 62.5341 116.765 62.5341H134.391C134.983 62.5341 135.492 62.0909 135.575 61.5038C137.098 50.5638 138.246 42.1301 138.994 36.4408C139.02 36.2522 139.159 36.2239 139.241 36.2239C139.326 36.2286 139.468 36.2522 139.491 36.4432C140.621 45.6078 141.903 54.058 143.301 61.5627C143.407 62.1262 143.9 62.5365 144.476 62.5365H162.237C162.847 62.5365 163.356 62.0791 163.425 61.4708L169.833 2.78857C169.871 2.45141 169.762 2.11424 169.536 1.86196H169.531Z" fill="white"/>
<path d="M11.9411 87.344C14.1331 87.344 15.7171 88.592 15.7171 90.4C15.7171 92.208 14.1331 93.472 11.9411 93.472C9.74913 93.472 8.16513 92.208 8.16513 90.4C8.16513 88.592 9.74913 87.344 11.9411 87.344ZM11.9411 88.72C10.6771 88.72 9.78113 89.376 9.78113 90.4C9.78113 91.44 10.6771 92.08 11.9411 92.08C13.2051 92.08 14.1171 91.44 14.1171 90.4C14.1171 89.376 13.2051 88.72 11.9411 88.72ZM11.1731 95.024H12.8531V100.88H11.1731V95.024ZM17.6051 86.704H19.2691V101.328H17.6051V86.704ZM7.39713 95.92L7.18913 94.528C9.82913 94.528 13.4931 94.496 16.6611 94.016L16.7731 95.248C13.5251 95.872 10.0051 95.904 7.39713 95.92ZM32.2599 86.704H33.9559V101.328H32.2599V86.704ZM25.7479 90.32H27.0919V91.36C27.0919 94.464 25.4919 97.408 22.9959 98.56L22.0839 97.264C24.3399 96.24 25.7479 93.76 25.7479 91.36V90.32ZM26.0999 90.32H27.4119V91.36C27.4119 93.648 28.8519 96.032 31.1399 97.024L30.2279 98.304C27.7159 97.216 26.0999 94.368 26.0999 91.36V90.32ZM22.5159 89.168H30.5959V90.512H22.5159V89.168ZM25.7479 87.008H27.4279V89.888H25.7479V87.008ZM47.0106 86.704H48.6906V101.328H47.0106V86.704ZM42.7226 88.256H44.3706C44.3706 92.592 42.6426 96.272 37.6186 98.72L36.7386 97.376C40.9466 95.344 42.7226 92.448 42.7226 88.544V88.256ZM37.4586 88.256H43.4746V89.6H37.4586V88.256ZM61.0734 86.72H62.7534V97.456H61.0734V86.72ZM62.2574 90.992H64.8174V92.384H62.2574V90.992ZM53.5054 99.68H63.3454V101.04H53.5054V99.68ZM53.5054 96.4H55.1854V99.984H53.5054V96.4ZM51.8574 87.76H53.5214V90.048H57.0894V87.76H58.7374V95.072H51.8574V87.76ZM53.5214 91.344V93.744H57.0894V91.344H53.5214ZM73.7539 87.184C75.9619 87.184 77.5939 88.544 77.5939 90.48C77.5939 92.4 75.9619 93.76 73.7539 93.76C71.5619 93.76 69.9299 92.4 69.9299 90.48C69.9299 88.544 71.5619 87.184 73.7539 87.184ZM73.7539 88.56C72.4899 88.56 71.5459 89.312 71.5459 90.48C71.5459 91.648 72.4899 92.4 73.7539 92.4C75.0339 92.4 75.9619 91.648 75.9619 90.48C75.9619 89.312 75.0339 88.56 73.7539 88.56ZM80.0259 86.704H81.7059V94.112H80.0259V86.704ZM72.1219 94.784H81.7059V98.528H73.7859V100.544H72.1539V97.296H80.0419V96.096H72.1219V94.784ZM72.1539 99.824H82.1379V101.152H72.1539V99.824ZM92.2326 90.384H95.2886V91.76H92.2326V90.384ZM94.8086 86.704H96.4886V95.408H94.8086V86.704ZM91.6086 95.792C94.6646 95.792 96.5366 96.832 96.5366 98.56C96.5366 100.32 94.6646 101.328 91.6086 101.328C88.5526 101.328 86.6806 100.32 86.6806 98.56C86.6806 96.832 88.5526 95.792 91.6086 95.792ZM91.6086 97.088C89.5446 97.088 88.3446 97.6 88.3446 98.56C88.3446 99.52 89.5446 100.032 91.6086 100.032C93.6886 100.032 94.8726 99.52 94.8726 98.56C94.8726 97.6 93.6886 97.088 91.6086 97.088ZM87.9446 88.176H89.3046V89.248C89.3046 91.984 87.8166 94.4 85.2246 95.328L84.3606 94C86.6486 93.2 87.9446 91.248 87.9446 89.248V88.176ZM88.2806 88.176H89.6246V89.232C89.6246 91.056 90.8726 92.864 93.0646 93.616L92.2326 94.944C89.7046 94.064 88.2806 91.76 88.2806 89.232V88.176ZM84.8406 87.696H92.6806V89.04H84.8406V87.696ZM99.8154 87.808H106.183V89.168H99.8154V87.808ZM101.847 91.136H103.495V94.784H101.847V91.136ZM105.527 87.808H107.175V88.64C107.175 89.632 107.175 91.088 106.807 92.96L105.175 92.784C105.527 90.912 105.527 89.616 105.527 88.64V87.808ZM108.903 86.704H110.599V97.68H108.903V86.704ZM109.879 91.328H112.535V92.72H109.879V91.328ZM101.127 99.68H111.063V101.04H101.127V99.68ZM101.127 96.688H102.807V100.096H101.127V96.688ZM99.0954 95.52L98.9354 94.176C101.511 94.176 105.063 94.128 108.007 93.712L108.119 94.912C105.095 95.456 101.639 95.52 99.0954 95.52ZM124.198 86.688H125.878V101.344H124.198V86.688ZM114.63 96.496H115.878C118.39 96.496 120.518 96.4 122.982 95.984L123.158 97.344C120.63 97.776 118.454 97.872 115.878 97.872H114.63V96.496ZM114.598 88H121.414V93.424H116.326V97.008H114.63V92.08H119.718V89.36H114.598V88ZM133.311 87.12H144.111V88.4H133.311V87.12ZM133.391 90.768H144.031V92.048H133.391V90.768ZM135.359 87.616H137.039V91.6H135.359V87.616ZM140.383 87.616H142.063V91.6H140.383V87.616ZM132.111 93.056H145.327V94.384H132.111V93.056ZM133.679 95.456H143.679V98.848H135.359V100.432H133.695V97.696H142.031V96.672H133.679V95.456ZM133.695 99.952H144.095V101.2H133.695V99.952ZM157.629 86.704H159.213V96.608H157.629V86.704ZM155.549 90.4H158.109V91.76H155.549V90.4ZM154.445 86.976H156.013V95.36H154.445V86.976ZM147.469 93.872H148.445C150.525 93.872 151.981 93.808 153.661 93.456L153.821 94.784C152.077 95.136 150.589 95.2 148.445 95.2H147.469V93.872ZM147.437 87.792H152.957V92.048H149.085V94.752H147.469V90.816H151.341V89.12H147.437V87.792ZM153.453 95.968H154.877V96.272C154.877 98.832 152.509 100.752 149.277 101.28L148.621 99.968C151.453 99.584 153.453 98 153.453 96.272V95.968ZM153.677 95.968H155.117V96.272C155.117 98 157.101 99.584 159.933 99.968L159.277 101.28C156.061 100.752 153.677 98.832 153.677 96.272V95.968ZM161.548 93.936H174.764V95.28H161.548V93.936ZM167.308 92.192H168.972V94.576H167.308V92.192ZM162.748 87.136H173.548V88.496H162.748V87.136ZM162.828 91.168H173.468V92.512H162.828V91.168ZM164.796 87.68H166.476V92.048H164.796V87.68ZM169.82 87.68H171.5V92.048H169.82V87.68ZM163.132 96.464H173.164V101.152H163.132V96.464ZM171.532 97.792H164.78V99.808H171.532V97.792Z" fill="white"/>
</svg>
