<svg width="30" height="30" viewBox="0 0 30 30" fill="none" xmlns="http://www.w3.org/2000/svg">
<path d="M9 24C8.44772 24 8 24.4477 8 25C8 25.5523 8.44772 26 9 26V24ZM21 26C21.5523 26 22 25.5523 22 25C22 24.4477 21.5523 24 21 24V26ZM21.5 11.875C21.5 13.6099 20.4375 15.8862 18.9466 17.7929C18.2158 18.7275 17.4227 19.5197 16.6834 20.0682C15.9103 20.6418 15.3297 20.85 15 20.85V22.85C15.9827 22.85 16.9959 22.3268 17.8752 21.6744C18.7882 20.9969 19.7061 20.0686 20.5221 19.0249C22.125 16.9751 23.5 14.2638 23.5 11.875H21.5ZM15 20.85C14.6913 20.85 14.1195 20.6368 13.3398 20.0222C12.5984 19.4377 11.8023 18.5955 11.0681 17.608C9.57049 15.5939 8.5 13.2109 8.5 11.4667H6.5C6.5 13.8461 7.86701 16.6548 9.46315 18.8014C10.2758 19.8943 11.1907 20.8747 12.1016 21.5928C12.9742 22.2807 13.9962 22.85 15 22.85V20.85ZM8.5 11.4667C8.5 7.74659 11.6409 5 15 5V3C10.6271 3 6.5 6.55341 6.5 11.4667H8.5ZM15 5C18.323 5 21.5 7.71154 21.5 11.875H23.5C23.5 6.58846 19.409 3 15 3V5ZM17 11.35C17 12.5839 16.0592 13.5 15 13.5V15.5C17.2546 15.5 19 13.5954 19 11.35H17ZM15 13.5C13.9408 13.5 13 12.584 13 11.35H11C11 13.5954 12.7454 15.5 15 15.5V13.5ZM13 11.35C13 10.116 13.9408 9.2 15 9.2V7.2C12.7454 7.2 11 9.10456 11 11.35H13ZM15 9.2C16.0592 9.2 17 10.1161 17 11.35H19C19 9.10456 17.2546 7.2 15 7.2V9.2ZM9 26H21V24H9V26Z" fill="#7B50FF"/>
</svg>
