<svg width="32" height="32" viewBox="0 0 32 32" fill="none" xmlns="http://www.w3.org/2000/svg">
<path d="M24.8987 13.3134C24.8987 8.35219 20.9087 4.33594 15.9912 4.33594C11.0737 4.33594 7.08374 8.35219 7.08374 13.3134C7.08374 15.6147 7.94121 17.7059 9.34996 19.2897C11.2575 21.4422 13.0337 23.7084 14.4599 26.2022L14.9587 27.0684C15.4137 27.8647 16.56 27.8647 17.015 27.0684L17.5137 26.2022C18.9399 23.6997 20.7162 21.4334 22.6237 19.2897C24.0325 17.7059 24.89 15.6147 24.89 13.3134H24.8987Z" fill="#8161F6"/>
<path d="M16 16.9183C18.0345 16.9183 19.6838 15.269 19.6838 13.2345C19.6838 11.2001 18.0345 9.55078 16 9.55078C13.9655 9.55078 12.3163 11.2001 12.3163 13.2345C12.3163 15.269 13.9655 16.9183 16 16.9183Z" fill="white"/>
</svg>
