<svg width="32" height="32" viewBox="0 0 32 32" fill="none" xmlns="http://www.w3.org/2000/svg">
<path d="M7.24427 27.298C5.56876 27.298 4.20215 25.9314 4.20215 24.2558V13.8565C4.20215 12.3963 4.93226 11.0577 6.15847 10.2621L13.6468 5.39469C14.3488 4.9454 15.1538 4.70203 15.9869 4.70203C16.8199 4.70203 17.6249 4.9454 18.327 5.39469L25.8153 10.2621C27.0415 11.0577 27.7716 12.4056 27.7716 13.8565V24.2558C27.7716 25.9314 26.405 27.298 24.7295 27.298H7.24427Z" fill="#8161F6"/>
<path d="M15.9774 5.40406C16.67 5.40406 17.3534 5.60062 17.9337 5.9844L25.422 10.8518C26.4423 11.5164 27.0507 12.6396 27.0507 13.8565V24.2558C27.0507 25.5476 26.0023 26.5959 24.7106 26.5959H7.24415C5.95242 26.5959 4.90406 25.5476 4.90406 24.2558V13.8565C4.90406 12.6396 5.51248 11.5164 6.53276 10.8518L14.0211 5.9844C14.6014 5.60062 15.2847 5.40406 15.9774 5.40406ZM15.9774 4C15.032 4 14.0866 4.27145 13.2535 4.80499L5.77457 9.67239C4.36115 10.5897 3.5 12.1716 3.5 13.8565V24.2558C3.5 26.3245 5.17551 28 7.24415 28H24.72C26.7886 28 28.4641 26.3245 28.4641 24.2558V13.8565C28.4641 12.1622 27.6123 10.5897 26.1896 9.67239L18.7012 4.80499C17.8775 4.27145 16.9228 4 15.9774 4Z" fill="#7C55F1"/>
<path d="M15.9771 21.8409C14.3671 21.8409 12.7572 21.4103 11.2595 20.5585C10.9225 20.3619 10.8102 19.9407 10.9974 19.6037C11.194 19.2668 11.6152 19.1544 11.9522 19.3417C14.5076 20.8019 17.4373 20.8019 19.9927 19.3417C20.3297 19.1451 20.7603 19.2668 20.9475 19.6037C21.1441 19.9407 21.0224 20.3713 20.6854 20.5585C19.1877 21.4197 17.5778 21.8409 15.9678 21.8409H15.9771Z" fill="white"/>
</svg>
