<svg width="32" height="32" viewBox="0 0 32 32" fill="none" xmlns="http://www.w3.org/2000/svg">
<circle cx="16" cy="16" r="16" fill="#7B7B7B"/>
<path d="M14.8146 22.4C14.8146 21.6426 15.4286 21.0286 16.186 21.0286C16.9434 21.0286 17.5574 21.6426 17.5574 22.4V23.3143C17.5574 24.0717 16.9434 24.6857 16.186 24.6857C15.4286 24.6857 14.8146 24.0717 14.8146 23.3143V22.4ZM14.8146 7.77145C14.8146 7.01403 15.4286 6.40002 16.186 6.40002C16.9434 6.40002 17.5574 7.01403 17.5574 7.77145V16C17.5574 16.7574 16.9434 17.3715 16.186 17.3715C15.4286 17.3715 14.8146 16.7574 14.8146 16V7.77145Z" fill="white"/>
</svg>
