<svg width="34" height="34" viewBox="0 0 34 34" fill="none" xmlns="http://www.w3.org/2000/svg">
<path d="M15.131 23.3054C16.9294 23.3054 18.6086 22.7259 19.9737 21.7601L25.1089 26.8467C25.3472 27.0827 25.6614 27.2008 25.9864 27.2008C26.6906 27.2008 27.1998 26.6642 27.1998 25.9774C27.1998 25.6555 27.0915 25.355 26.8531 25.1189L21.7504 20.0538C22.823 18.6588 23.4622 16.931 23.4622 15.0531C23.4622 10.5138 19.7137 6.80078 15.131 6.80078C10.5375 6.80078 6.7998 10.5138 6.7998 15.0531C6.7998 19.5924 10.5375 23.3054 15.131 23.3054ZM15.131 21.524C11.545 21.524 8.59821 18.5944 8.59821 15.0531C8.59821 11.5118 11.545 8.58216 15.131 8.58216C18.7061 8.58216 21.6637 11.5118 21.6637 15.0531C21.6637 18.5944 18.7061 21.524 15.131 21.524Z" fill="#7B50FF" stroke="#7B50FF" stroke-width="0.34"/>
</svg>
