<svg width="132" height="30" viewBox="0 0 132 30" fill="none" xmlns="http://www.w3.org/2000/svg">
<g clip-path="url(#clip0_4566_22156)">
<path d="M7.47609 30C6.14541 30 4.93605 29.7804 3.88157 29.348C2.83794 28.9206 1.98468 28.2715 1.34647 27.4186C1.34252 27.4127 1.33857 27.4068 1.33463 27.4009C0.695427 26.5411 0.30875 25.5907 0.186434 24.5753C0.063131 23.551 0 21.726 0 19.1525V14.8505C0 12.343 0.0601717 10.5416 0.178542 9.49665C0.29494 8.46744 0.665835 7.51407 1.28038 6.66116C1.89492 5.81022 2.73633 5.14739 3.78293 4.69139C4.83347 4.23243 6.07537 4 7.47609 4C8.87681 4 10.0151 4.21963 11.0696 4.65298C12.1221 5.08436 12.9793 5.74029 13.6176 6.6001C14.2577 7.46187 14.6434 8.41229 14.7657 9.42574C14.889 10.45 14.9522 12.275 14.9522 14.8485V19.1505C14.9522 21.656 14.892 23.4574 14.7736 24.5043C14.6563 25.5335 14.2854 26.4869 13.6718 27.3379C13.0573 28.1888 12.2158 28.8516 11.1693 29.3076C10.1197 29.7656 8.87681 29.998 7.47609 29.998V30ZM6.35058 10.8656C6.35058 10.8735 6.35058 10.8814 6.35058 10.8893V22.6291C6.35058 24.1153 6.41075 25.0106 6.53504 25.3641C6.66722 25.7423 6.98781 25.9423 7.46031 25.9423C8.07288 25.9423 8.31554 25.5838 8.41023 25.2844C8.53945 24.8747 8.6016 23.9459 8.6016 22.443V10.8893C8.6016 9.71529 8.53354 8.94807 8.40037 8.60927C8.21985 8.15326 7.81542 8.05773 7.50766 8.05773C7.13183 8.05773 6.84083 8.20546 6.64059 8.49699C6.56957 8.6004 6.35256 8.91557 6.35157 10.8656H6.35058Z" fill="#6236E9"/>
<path d="M17.3925 29.4735C17.2801 29.4735 17.1893 29.3829 17.1893 29.2706V4.73318C17.1893 4.6209 17.2801 4.52931 17.3925 4.52931H22.3454C22.4341 4.52931 22.5121 4.58544 22.5397 4.66916L25.5522 13.9616C25.6055 14.13 25.7534 14.2383 25.929 14.2383C25.9527 14.2383 25.9744 14.2363 25.9931 14.2334C26.1944 14.2029 26.3354 14.0403 26.3354 13.8375V4.73219C26.3354 4.61991 26.4262 4.52832 26.5386 4.52832H31.4086C31.5211 4.52832 31.6118 4.61991 31.6118 4.73219V29.2696C31.6118 29.3819 31.5211 29.4725 31.4086 29.4725H26.1973C26.1095 29.4725 26.0277 29.4115 26.003 29.3277L23.2529 20.1013C23.2035 19.929 23.0546 19.8147 22.8741 19.8147C22.8514 19.8147 22.8297 19.8167 22.8109 19.8197C22.6087 19.8492 22.4677 20.0117 22.4677 20.2156V29.248C22.4677 29.2558 22.4677 29.2637 22.4677 29.2716C22.4677 29.3839 22.3769 29.4745 22.2645 29.4745H17.3945L17.3925 29.4735Z" fill="#6236E9"/>
<path d="M50.9861 29.4784C50.8737 29.4784 50.7829 29.3878 50.7829 29.2755L50.777 17.1131C50.777 16.8935 50.6182 16.7251 50.3992 16.7143C50.3943 16.7143 50.3795 16.7143 50.3745 16.7143C50.1674 16.7143 50.0086 16.8531 49.979 17.06L48.3356 29.3031C48.3218 29.4035 48.235 29.4794 48.1334 29.4794H44.6C44.5014 29.4794 44.4126 29.4026 44.3988 29.305L42.6331 17.1171C42.6045 16.9152 42.4427 16.7743 42.2405 16.7743C42.2277 16.7743 42.2158 16.7743 42.205 16.7753C41.9949 16.7862 41.8351 16.9546 41.8351 17.1742L41.8292 29.2765C41.8292 29.3888 41.7384 29.4794 41.626 29.4794H36.5064C36.394 29.4794 36.3032 29.3888 36.3032 29.2765V4.73707C36.3032 4.6248 36.394 4.5332 36.5064 4.5332H44.4205C44.5231 4.5332 44.6049 4.60313 44.6217 4.7026C44.8624 6.17895 45.11 7.89068 45.3566 9.79052L45.9692 14.0009C45.9968 14.2018 46.1605 14.3437 46.3657 14.3437C46.5709 14.3437 46.7386 14.1999 46.7642 13.993L47.9539 4.71048C47.9667 4.60904 48.0535 4.5332 48.1551 4.5332H56.1056C56.2191 4.5332 56.3098 4.6248 56.3098 4.73707V29.2745C56.3098 29.3868 56.2191 29.4774 56.1066 29.4774H50.9871L50.9861 29.4784Z" fill="#6236E9"/>
<path d="M92.2038 29.4421C92.1061 29.4421 92.0213 29.3721 92.0035 29.2756C91.4186 26.1417 90.8839 22.6178 90.4124 18.8014C90.3878 18.6004 90.2378 18.4626 90.0307 18.4507C90.0248 18.4507 90.0198 18.4507 90.0139 18.4507C89.8077 18.4507 89.645 18.5935 89.6174 18.7964C89.2918 21.2665 88.7976 24.886 88.1871 29.2648C88.1732 29.3633 88.0845 29.4401 87.9848 29.4401H80.6103C80.5068 29.4401 80.42 29.3623 80.4081 29.2599L77.6254 4.74605C77.6185 4.68892 77.6373 4.63082 77.6757 4.58748C77.7142 4.54513 77.7694 4.52051 77.8276 4.52051H83.397C83.5006 4.52051 83.5923 4.60521 83.6002 4.70862L84.5876 17.5693C84.6034 17.7869 84.7671 17.9396 84.9871 17.9396C85.2071 17.9396 85.3679 17.7889 85.3856 17.5732C85.6894 13.9705 86.1738 9.63896 86.8238 4.69877C86.8366 4.59733 86.9234 4.52149 87.025 4.52149H93.1034C93.2099 4.52149 93.2957 4.59831 93.3066 4.7037C93.4092 5.70631 93.6331 8.40194 93.9714 12.7148L94.364 18.04C94.3808 18.2459 94.5278 18.3897 94.7369 18.4094C94.7458 18.4094 94.7546 18.4104 94.7635 18.4104C94.9815 18.4104 95.1453 18.2587 95.163 18.041C95.5152 13.5352 96.0025 9.04507 96.6131 4.69582C96.6269 4.59733 96.7157 4.52051 96.8153 4.52051H102.315C102.373 4.52051 102.428 4.54513 102.466 4.58748C102.47 4.5924 102.475 4.59733 102.48 4.60127C102.511 4.64165 102.525 4.69286 102.519 4.74408L99.8377 29.2579C99.8258 29.3613 99.739 29.4401 99.6345 29.4401H92.2038V29.4421Z" fill="#6236E9"/>
<path d="M121.664 29.4784C121.552 29.4784 121.461 29.3878 121.461 29.2755V20.5199C121.461 20.4795 121.455 20.442 121.444 20.4056L116.964 4.79418C116.945 4.73115 116.957 4.66812 116.997 4.6169C117.037 4.56372 117.095 4.53516 117.16 4.53516H122.524C122.622 4.53516 122.706 4.60508 122.725 4.70259C123.321 7.82172 123.753 10.3125 124.008 12.106C124.037 12.3079 124.199 12.4497 124.404 12.4497C124.608 12.4497 124.768 12.3118 124.8 12.1148C125.15 9.96976 125.633 7.47406 126.233 4.69668C126.253 4.60311 126.337 4.53614 126.433 4.53614H131.799C131.856 4.53614 131.907 4.55879 131.947 4.60016C131.951 4.60705 131.956 4.61296 131.96 4.61986C131.999 4.67206 132.01 4.73509 131.991 4.79812L127.344 20.4095C127.342 20.4164 127.34 20.4233 127.338 20.4312C127.331 20.4637 127.327 20.4942 127.327 20.5238V29.2784C127.327 29.3907 127.237 29.4813 127.124 29.4813H121.663L121.664 29.4784Z" fill="#6236E9"/>
<path d="M102.029 29.4794C101.97 29.4794 101.914 29.4538 101.876 29.4104C101.837 29.3661 101.819 29.308 101.827 29.2489L105.087 4.71047C105.1 4.60903 105.187 4.53418 105.29 4.53418H114.229C114.327 4.53418 114.415 4.611 114.43 4.7085C114.43 4.71146 118.084 29.245 118.084 29.245C118.093 29.3031 118.076 29.3632 118.037 29.4085C117.999 29.4528 117.942 29.4784 117.883 29.4784H111.822C111.718 29.4784 111.626 29.3947 111.619 29.2913L111.311 25.3291C111.296 25.1222 111.12 24.9597 110.911 24.9597H109.126C108.917 24.9597 108.745 25.1163 108.726 25.3241L108.38 29.2932C108.37 29.4016 108.285 29.4794 108.177 29.4794H102.029H102.029ZM109.945 12.4339C109.736 12.4399 109.58 12.5797 109.553 12.7826C109.13 15.9845 108.841 18.5038 108.694 20.2687C108.683 20.3761 108.72 20.4893 108.798 20.5721C108.801 20.575 108.803 20.578 108.806 20.5799C108.884 20.6577 108.986 20.7001 109.093 20.7001H110.68C110.793 20.7001 110.897 20.6538 110.975 20.5701C111.04 20.5002 111.077 20.4105 111.08 20.316C111.082 20.2953 111.082 20.2746 111.08 20.2549C110.835 18.1138 110.59 15.6053 110.35 12.7993C110.332 12.5876 110.165 12.4339 109.952 12.4339C109.949 12.4339 109.947 12.4339 109.945 12.4339Z" fill="#6236E9"/>
<path d="M63.3431 29.4784C63.2307 29.4784 63.1399 29.3878 63.1399 29.2755V20.5199C63.1399 20.4795 63.134 20.442 63.1232 20.4056L58.6428 4.79418C58.6241 4.73115 58.6359 4.66812 58.6764 4.61592C58.7148 4.5647 58.774 4.53516 58.8381 4.53516H64.2023C64.3 4.53516 64.3838 4.60508 64.4025 4.70259C64.9974 7.81975 65.4294 10.3105 65.6859 12.106C65.7145 12.3049 65.8723 12.4458 66.0735 12.4497C66.0795 12.4497 66.0864 12.4497 66.0903 12.4497C66.2856 12.4497 66.4454 12.3118 66.478 12.1148C66.8282 9.97271 67.3105 7.47701 67.9112 4.69668C67.931 4.60311 68.0148 4.53614 68.1105 4.53614H73.4747C73.5398 4.53614 73.598 4.56569 73.6384 4.61887C73.6779 4.67107 73.6887 4.7341 73.67 4.79714L69.0229 20.4086C69.021 20.4145 69.02 20.4204 69.018 20.4273C69.0101 20.4608 69.0062 20.4923 69.0062 20.5228V29.2775C69.0062 29.3897 68.9154 29.4803 68.803 29.4803H63.3421L63.3431 29.4784Z" fill="#6236E9"/>
</g>
<defs>
<clipPath id="clip0_4566_22156">
<rect width="132" height="26" fill="white" transform="translate(0 4)"/>
</clipPath>
</defs>
</svg>
