<svg width="42" height="43" viewBox="0 0 42 43" fill="none" xmlns="http://www.w3.org/2000/svg">
<circle cx="21" cy="21.5" r="20.2841" stroke="#F0F0F0" stroke-width="1.43182"/>
<path d="M30.3904 18.6458C30.3904 13.372 26.1465 9.09082 20.9222 9.09082C15.698 9.09082 11.4541 13.372 11.4541 18.6458C11.4541 21.0904 12.3725 23.3116 13.8615 24.9993C15.8966 27.2825 17.7828 29.7023 19.2967 32.3579L19.8178 33.2761C20.3018 34.12 21.5179 34.12 22.0018 33.2761L22.5231 32.3579C24.0494 29.7023 25.9356 27.2825 27.9583 24.9993C29.4598 23.3116 30.3655 21.0904 30.3655 18.6458H30.3904Z" fill="#8161F6"/>
<path d="M20.8787 22.3934C23.0204 22.3934 24.7566 20.6572 24.7566 18.5155C24.7566 16.3739 23.0204 14.6377 20.8787 14.6377C18.737 14.6377 17.001 16.3739 17.001 18.5155C17.001 20.6572 18.737 22.3934 20.8787 22.3934Z" fill="white"/>
</svg>
