<svg width="30" height="30" viewBox="0 0 30 30" fill="none" xmlns="http://www.w3.org/2000/svg">
<path d="M7.79289 20.7929C7.40237 21.1834 7.40237 21.8166 7.79289 22.2071C8.18342 22.5976 8.81658 22.5976 9.20711 22.2071L7.79289 20.7929ZM15.7071 15.7071C16.0976 15.3166 16.0976 14.6834 15.7071 14.2929C15.3166 13.9024 14.6834 13.9024 14.2929 14.2929L15.7071 15.7071ZM14.2929 14.2929C13.9024 14.6834 13.9024 15.3166 14.2929 15.7071C14.6834 16.0976 15.3166 16.0976 15.7071 15.7071L14.2929 14.2929ZM22.2071 9.20711C22.5976 8.81658 22.5976 8.18342 22.2071 7.79289C21.8166 7.40237 21.1834 7.40237 20.7929 7.79289L22.2071 9.20711ZM15.7071 14.2929C15.3166 13.9024 14.6834 13.9024 14.2929 14.2929C13.9024 14.6834 13.9024 15.3166 14.2929 15.7071L15.7071 14.2929ZM20.7929 22.2071C21.1834 22.5976 21.8166 22.5976 22.2071 22.2071C22.5976 21.8166 22.5976 21.1834 22.2071 20.7929L20.7929 22.2071ZM14.2929 15.7071C14.6834 16.0976 15.3166 16.0976 15.7071 15.7071C16.0976 15.3166 16.0976 14.6834 15.7071 14.2929L14.2929 15.7071ZM9.20711 7.79289C8.81658 7.40237 8.18342 7.40237 7.79289 7.79289C7.40237 8.18342 7.40237 8.81658 7.79289 9.20711L9.20711 7.79289ZM9.20711 22.2071L15.7071 15.7071L14.2929 14.2929L7.79289 20.7929L9.20711 22.2071ZM15.7071 15.7071L22.2071 9.20711L20.7929 7.79289L14.2929 14.2929L15.7071 15.7071ZM14.2929 15.7071L20.7929 22.2071L22.2071 20.7929L15.7071 14.2929L14.2929 15.7071ZM15.7071 14.2929L9.20711 7.79289L7.79289 9.20711L14.2929 15.7071L15.7071 14.2929Z" fill="black"/>
</svg>
