<svg width="24" height="24" viewBox="0 0 24 24" fill="none" xmlns="http://www.w3.org/2000/svg">
<path d="M14.3359 8.88574C14.3359 9.85224 15.1194 10.6357 16.0859 10.6357C17.0524 10.6357 17.8359 9.85224 17.8359 8.88574C17.8359 7.91924 17.0524 7.13574 16.0859 7.13574C15.1194 7.13574 14.3359 7.91924 14.3359 8.88574Z" stroke="#F8F8F8" stroke-width="1.5" stroke-linecap="round" stroke-linejoin="round"/>
<path d="M20.25 10.7143C20.25 11.1285 20.5858 11.4643 21 11.4643C21.4142 11.4643 21.75 11.1285 21.75 10.7143H20.25ZM3 15.8571L3.75 15.8581V15.8571H3ZM3.41894 19.3791C3.66699 19.7109 4.137 19.7787 4.46872 19.5306C4.80045 19.2826 4.86827 18.8126 4.62022 18.4808L3.41894 19.3791ZM21.7499 10.7143C21.7499 10.3 21.4142 9.96426 20.9999 9.96426C20.5857 9.96426 20.2499 10.3 20.2499 10.7143H21.7499ZM8.14281 21V20.25L8.14233 20.25L8.14281 21ZM4.62127 18.4823C4.37403 18.15 3.90419 18.081 3.57186 18.3282C3.23952 18.5755 3.17055 19.0453 3.41779 19.3776L4.62127 18.4823ZM21.5037 11.2699C21.8106 10.9917 21.8338 10.5174 21.5556 10.2105C21.2774 9.90364 20.8031 9.8804 20.4962 10.1586L21.5037 11.2699ZM14.9571 16.1927L14.4533 15.637L14.4483 15.6417L14.9571 16.1927ZM13.9792 16.5295L13.9176 17.2769L13.9176 17.2769L13.9792 16.5295ZM13.0697 16.0371L13.6618 15.5769L13.6615 15.5764L13.0697 16.0371ZM10.4867 12.7187L11.0785 12.258L11.0774 12.2566L10.4867 12.7187ZM9.44748 12.2254L9.43202 11.4756L9.44748 12.2254ZM8.42952 12.7611L7.82025 12.3238L7.8194 12.3249L8.42952 12.7611ZM3.4094 18.4938C3.16851 18.8308 3.24639 19.2992 3.58336 19.5401C3.92032 19.781 4.38877 19.7031 4.62966 19.3661L3.4094 18.4938ZM21.75 10.7143V8.14285H20.25V10.7143H21.75ZM21.75 8.14285C21.75 4.88832 19.1117 2.25 15.8571 2.25V3.75C18.2832 3.75 20.25 5.71675 20.25 8.14285H21.75ZM15.8571 2.25H8.14286V3.75H15.8571V2.25ZM8.14286 2.25C4.88833 2.25 2.25 4.88832 2.25 8.14285H3.75C3.75 5.71675 5.71675 3.75 8.14286 3.75V2.25ZM2.25 8.14285V15.8571H3.75V8.14285H2.25ZM2.25001 15.8561C2.2483 17.126 2.65846 18.3622 3.41894 19.3791L4.62022 18.4808C4.05408 17.7238 3.74874 16.8035 3.75 15.8581L2.25001 15.8561ZM20.2499 10.7143V15.8571H21.7499V10.7143H20.2499ZM20.2499 15.8571C20.2499 18.2832 18.2832 20.25 15.8571 20.25V21.75C19.1116 21.75 21.7499 19.1116 21.7499 15.8571H20.2499ZM15.8571 20.25H8.14281V21.75H15.8571V20.25ZM8.14233 20.25C6.75512 20.2508 5.44929 19.5953 4.62127 18.4823L3.41779 19.3776C4.52905 20.8713 6.28155 21.7511 8.14329 21.75L8.14233 20.25ZM20.4962 10.1586L14.4533 15.637L15.4608 16.7483L21.5037 11.2699L20.4962 10.1586ZM14.4483 15.6417C14.3381 15.7434 14.1903 15.7943 14.0408 15.782L13.9176 17.2769C14.4856 17.3238 15.0472 17.1303 15.4659 16.7437L14.4483 15.6417ZM14.0408 15.782C13.8913 15.7697 13.7539 15.6953 13.6618 15.5769L12.4775 16.4974C12.8272 16.9474 13.3496 17.2301 13.9176 17.2769L14.0408 15.782ZM13.6615 15.5764L11.0785 12.258L9.89482 13.1794L12.4778 16.4978L13.6615 15.5764ZM11.0774 12.2566C10.6825 11.7517 10.0728 11.4624 9.43202 11.4756L9.46295 12.9753C9.63159 12.9718 9.79201 13.0479 9.89594 13.1808L11.0774 12.2566ZM9.43202 11.4756C8.7912 11.4888 8.19402 11.8031 7.82025 12.3238L9.0388 13.1985C9.13716 13.0614 9.29431 12.9787 9.46295 12.9753L9.43202 11.4756ZM7.8194 12.3249L3.4094 18.4938L4.62966 19.3661L9.03965 13.1973L7.8194 12.3249Z" fill="#F8F8F8"/>
</svg>
