<svg width="22" height="22" viewBox="0 0 22 22" fill="none" xmlns="http://www.w3.org/2000/svg">
<path fill-rule="evenodd" clip-rule="evenodd" d="M13.5142 8.48458C13.5142 8.94745 13.8894 9.32267 14.3523 9.32267C14.8151 9.32267 15.1903 8.94745 15.1903 8.48458C15.1903 8.02171 14.8151 7.64648 14.3523 7.64648C13.8894 7.64648 13.5142 8.02171 13.5142 8.48458Z" stroke="white" stroke-width="1.4" stroke-linecap="round" stroke-linejoin="round"/>
<path d="M17.3332 9.95172C17.3332 10.504 17.7809 10.9517 18.3332 10.9517C18.8854 10.9517 19.3332 10.504 19.3332 9.95172H17.3332ZM3.66651 14.1422L4.66651 14.1435V14.1422H3.66651ZM3.69642 17.2449C4.02716 17.6872 4.65383 17.7776 5.09613 17.4469C5.53843 17.1161 5.62886 16.4894 5.29812 16.0471L3.69642 17.2449ZM19.3331 9.95173C19.3331 9.39945 18.8854 8.95173 18.3331 8.95173C17.7808 8.95173 17.3331 9.39945 17.3331 9.95173H19.3331ZM7.85695 18.3327V17.3327H7.85631L7.85695 18.3327ZM5.29955 16.0491C4.9699 15.606 4.34345 15.514 3.90034 15.8437C3.45723 16.1733 3.36526 16.7998 3.69492 17.2429L5.29955 16.0491ZM19.0048 10.6926C19.414 10.3216 19.4449 9.68924 19.074 9.28007C18.703 8.8709 18.0706 8.83992 17.6615 9.21087L19.0048 10.6926ZM13.4093 14.4156L12.7376 13.6747L12.7309 13.681L13.4093 14.4156ZM12.6125 14.6901L12.5304 15.6867H12.5304L12.6125 14.6901ZM11.8714 14.2889L12.661 13.6752L12.6605 13.6746L11.8714 14.2889ZM9.76675 11.585L10.5559 10.9707L10.5544 10.9688L9.76675 11.585ZM8.92001 11.1831L8.89939 10.1833L8.92001 11.1831ZM8.09057 11.6195L7.2782 11.0364L7.27706 11.038L8.09057 11.6195ZM3.68373 16.0645C3.36254 16.5137 3.46639 17.1383 3.91568 17.4595C4.36496 17.7807 4.98955 17.6769 5.31074 17.2276L3.68373 16.0645ZM19.3332 9.95172V7.85649H17.3332V9.95172H19.3332ZM19.3332 7.85649C19.3332 4.98987 17.0093 2.66602 14.1427 2.66602V4.66602C15.9047 4.66602 17.3332 6.09444 17.3332 7.85649H19.3332ZM14.1427 2.66602H7.85698V4.66602H14.1427V2.66602ZM7.85698 2.66602C4.99036 2.66602 2.66651 4.98987 2.66651 7.85649H4.66651C4.66651 6.09444 6.09493 4.66602 7.85698 4.66602V2.66602ZM2.66651 7.85649V14.1422H4.66651V7.85649H2.66651ZM2.66651 14.1409C2.66501 15.2597 3.02639 16.3488 3.69642 17.2449L5.29812 16.0471C4.88721 15.4976 4.66559 14.8297 4.66651 14.1435L2.66651 14.1409ZM17.3331 9.95173V14.1422H19.3331V9.95173H17.3331ZM17.3331 14.1422C17.3331 15.9043 15.9047 17.3327 14.1427 17.3327V19.3327C17.0093 19.3327 19.3331 17.0088 19.3331 14.1422H17.3331ZM14.1427 17.3327H7.85695V19.3327H14.1427V17.3327ZM7.85631 17.3327C6.84901 17.3333 5.90081 16.8573 5.29955 16.0491L3.69492 17.2429C4.67382 18.5587 6.21759 19.3337 7.85758 19.3327L7.85631 17.3327ZM17.6615 9.21087L12.7377 13.6748L14.081 15.1565L19.0048 10.6926L17.6615 9.21087ZM12.7309 13.681C12.7211 13.69 12.708 13.6945 12.6947 13.6934L12.5304 15.6867C13.1017 15.7338 13.6666 15.5392 14.0878 15.1503L12.7309 13.681ZM12.6947 13.6934C12.6814 13.6923 12.6692 13.6857 12.661 13.6752L11.0819 14.9025C11.4336 15.3552 11.9591 15.6396 12.5304 15.6867L12.6947 13.6934ZM12.6605 13.6746L10.5559 10.9707L8.97763 12.1992L11.0823 14.9031L12.6605 13.6746ZM10.5544 10.9688C10.1572 10.461 9.54396 10.17 8.89939 10.1833L8.94063 12.1828C8.95562 12.1825 8.96988 12.1893 8.97912 12.2011L10.5544 10.9688ZM8.89939 10.1833C8.25482 10.1966 7.65416 10.5127 7.2782 11.0364L8.90293 12.2027C8.91168 12.1905 8.92564 12.1832 8.94063 12.1828L8.89939 10.1833ZM7.27706 11.038L3.68373 16.0645L5.31074 17.2276L8.90407 12.2011L7.27706 11.038Z" fill="white"/>
</svg>
