<svg width="30" height="30" viewBox="0 0 30 30" fill="none" xmlns="http://www.w3.org/2000/svg">
<path fill-rule="evenodd" clip-rule="evenodd" d="M18.4286 11.5706C18.4286 12.2018 18.9403 12.7134 19.5714 12.7134C20.2026 12.7134 20.7143 12.2018 20.7143 11.5706C20.7143 10.9394 20.2026 10.4277 19.5714 10.4277C18.9403 10.4277 18.4286 10.9394 18.4286 11.5706Z" stroke="#ACACAC" stroke-width="1.4" stroke-linecap="round" stroke-linejoin="round"/>
<path d="M24 13.5714C24 14.1237 24.4477 14.5714 25 14.5714C25.5523 14.5714 26 14.1237 26 13.5714H24ZM5.00001 19.2857L6.00001 19.287V19.2857H5.00001ZM5.33201 23.2988C5.66275 23.7411 6.28942 23.8316 6.73172 23.5008C7.17402 23.1701 7.26446 22.5434 6.93371 22.1011L5.33201 23.2988ZM25.9999 13.5714C25.9999 13.0191 25.5522 12.5714 24.9999 12.5714C24.4477 12.5714 23.9999 13.0191 23.9999 13.5714H25.9999ZM10.7142 25V24L10.7136 24L10.7142 25ZM6.93513 22.1031C6.60548 21.66 5.97903 21.568 5.53592 21.8977C5.09281 22.2273 5.00084 22.8538 5.3305 23.2969L6.93513 22.1031ZM25.6716 14.3123C26.0808 13.9413 26.1117 13.3089 25.7408 12.8998C25.3699 12.4906 24.7374 12.4596 24.3283 12.8306L25.6716 14.3123ZM18.2857 19.6586L17.614 18.9177L17.6072 18.9239L18.2857 19.6586ZM17.1991 20.0328L17.117 21.0294H17.117L17.1991 20.0328ZM16.1885 19.4857L16.9781 18.872L16.9776 18.8715L16.1885 19.4857ZM13.3185 15.7986L14.1076 15.1843L14.1062 15.1824L13.3185 15.7986ZM12.1639 15.2505L12.1433 14.2507L12.1639 15.2505ZM11.0328 15.8457L10.2204 15.2626L10.2193 15.2642L11.0328 15.8457ZM5.31931 22.1184C4.99813 22.5677 5.10197 23.1923 5.55126 23.5135C6.00054 23.8347 6.62513 23.7308 6.94632 23.2816L5.31931 22.1184ZM26 13.5714V10.7143H24V13.5714H26ZM26 10.7143C26 7.00609 22.9939 4 19.2857 4V6C21.8893 6 24 8.11066 24 10.7143H26ZM19.2857 4H10.7143V6H19.2857V4ZM10.7143 4C7.00609 4 4.00001 7.00609 4.00001 10.7143H6.00001C6.00001 8.11066 8.11066 6 10.7143 6V4ZM4.00001 10.7143V19.2857H6.00001V10.7143H4.00001ZM4.00001 19.2844C3.99807 20.7314 4.46545 22.14 5.33201 23.2988L6.93371 22.1011C6.32627 21.2888 5.99865 20.3014 6 19.287L4.00001 19.2844ZM23.9999 13.5714V19.2857H25.9999V13.5714H23.9999ZM23.9999 19.2857C23.9999 21.8893 21.8893 24 19.2857 24V26C22.9939 26 25.9999 22.9939 25.9999 19.2857H23.9999ZM19.2857 24H10.7142V26H19.2857V24ZM10.7136 24C9.22498 24.0009 7.82369 23.2975 6.93513 22.1031L5.3305 23.2969C6.5967 24.9989 8.59356 26.0013 10.7149 26L10.7136 24ZM24.3283 12.8306L17.614 18.9177L18.9573 20.3994L25.6716 14.3123L24.3283 12.8306ZM17.6072 18.9239C17.5191 19.0053 17.4008 19.046 17.2813 19.0362L17.117 21.0294C17.7946 21.0853 18.4646 20.8545 18.9641 20.3932L17.6072 18.9239ZM17.2813 19.0362C17.1617 19.0263 17.0517 18.9668 16.9781 18.872L15.399 20.0994C15.8162 20.6362 16.4394 20.9736 17.117 21.0294L17.2813 19.0362ZM16.9776 18.8715L14.1076 15.1843L12.5294 16.4128L15.3994 20.0999L16.9776 18.8715ZM14.1062 15.1824C13.635 14.5802 12.9077 14.235 12.1433 14.2507L12.1845 16.2503C12.3194 16.2475 12.4478 16.3084 12.5309 16.4147L14.1062 15.1824ZM12.1433 14.2507C11.3788 14.2665 10.6663 14.6414 10.2204 15.2626L11.8452 16.4289C11.9239 16.3192 12.0496 16.2531 12.1845 16.2503L12.1433 14.2507ZM10.2193 15.2642L5.31931 22.1184L6.94632 23.2816L11.8463 16.4273L10.2193 15.2642Z" fill="#ACACAC"/>
</svg>
