<svg width="32" height="32" viewBox="0 0 32 32" fill="none" xmlns="http://www.w3.org/2000/svg">
<path d="M21.7139 10.6916C22.9229 10.6916 23.9186 11.6567 23.9186 12.8352C23.9186 14.0138 22.9331 14.9789 21.7139 14.9789C20.4948 14.9789 19.5093 14.0138 19.5093 12.8352C19.5093 11.6567 20.4948 10.6916 21.7139 10.6916ZM21.7139 9.1676C19.6515 9.1676 17.9854 10.8135 17.9854 12.8352C17.9854 14.857 19.6515 16.5029 21.7139 16.5029C23.7764 16.5029 25.4425 14.857 25.4425 12.8352C25.4425 10.8135 23.7764 9.1676 21.7139 9.1676Z" fill="#8161F6"/>
<path d="M25.056 19.3577C26.5292 19.3577 27.7686 20.4042 27.9515 21.7859C28.0633 22.619 27.8194 23.4114 27.2708 24.0312C26.7425 24.6306 25.9907 24.976 25.2084 24.976H22.8412C23.3797 23.8788 23.6641 22.6596 23.6641 21.4405C23.6641 20.7293 23.5727 20.0283 23.3898 19.3577H25.0357M25.056 17.8338H22.2723C21.7643 17.8338 21.4087 18.3621 21.6119 18.8294C21.9675 19.6422 22.1605 20.5363 22.1605 21.4506C22.1605 22.8831 21.683 24.2547 20.8499 25.3519C20.4943 25.8193 20.8296 26.5 21.4188 26.5H25.2186C27.7686 26.5 29.8107 24.2242 29.4653 21.5827C29.1808 19.3984 27.2302 17.8338 25.056 17.8338Z" fill="#8161F6"/>
<path d="M11.2185 7.02395C12.8034 7.02395 14.0936 8.28375 14.0936 9.82801C14.0936 11.3723 12.8034 12.6321 11.2185 12.6321C9.63356 12.6321 8.34328 11.3723 8.34328 9.82801C8.34328 8.28375 9.63356 7.02395 11.2185 7.02395ZM11.2185 5.5C8.79031 5.5 6.81934 7.44049 6.81934 9.82801C6.81934 12.2155 8.79031 14.156 11.2185 14.156C13.6466 14.156 15.6176 12.2155 15.6176 9.82801C15.6176 7.44049 13.6466 5.5 11.2185 5.5Z" fill="#8161F6"/>
<path d="M14.6834 17.3563C16.7865 17.3563 18.4933 19.0631 18.4933 21.1662C18.4933 23.2692 16.7865 24.976 14.6834 24.976H7.73421C5.63116 24.976 3.92434 23.2692 3.92434 21.1662C3.92434 19.0631 5.63116 17.3563 7.73421 17.3563H14.6834ZM14.6834 15.8323H7.73421C4.78791 15.8323 2.40039 18.2199 2.40039 21.1662C2.40039 24.1125 4.78791 26.5 7.73421 26.5H14.6834C17.6297 26.5 20.0172 24.1125 20.0172 21.1662C20.0172 18.2199 17.6297 15.8323 14.6834 15.8323Z" fill="#8161F6"/>
</svg>
