<svg width="32" height="32" viewBox="0 0 32 32" fill="none" xmlns="http://www.w3.org/2000/svg">
<path d="M14.845 13.3929C17.3125 13.3929 19.3163 11.3979 19.3163 8.93911C19.3163 6.48036 17.3125 4.48535 14.845 4.48535C12.3775 4.48535 10.3738 6.48036 10.3738 8.93911C10.3738 11.3979 12.3775 13.3929 14.845 13.3929ZM14.845 6.16536C16.3763 6.16536 17.6275 7.40786 17.6275 8.93911C17.6275 10.4704 16.3763 11.7129 14.845 11.7129C13.3138 11.7129 12.0625 10.4704 12.0625 8.93911C12.0625 7.40786 13.3138 6.16536 14.845 6.16536Z" fill="#8161F6"/>
<path d="M24.0763 20.5849C23.6126 20.5849 23.2363 20.9612 23.2363 21.4249C23.2363 23.8574 21.2501 25.8437 18.8001 25.8437H10.89C8.4488 25.8437 6.45379 23.8574 6.45379 21.4249C6.45379 18.9924 8.44005 17.0062 10.89 17.0062H18.8001C19.2638 17.0062 19.64 16.6299 19.64 16.1662C19.64 15.7024 19.2638 15.3262 18.8001 15.3262H10.89C7.51255 15.3262 4.7738 18.0649 4.7738 21.4249C4.7738 24.7849 7.5213 27.5237 10.89 27.5237H18.8001C22.1776 27.5237 24.9163 24.7849 24.9163 21.4249C24.9163 20.9612 24.5401 20.5849 24.0763 20.5849Z" fill="#8161F6"/>
<path d="M26.3862 15.3266H24.925V13.8654C24.925 13.4016 24.5487 13.0254 24.085 13.0254C23.6212 13.0254 23.245 13.4016 23.245 13.8654V15.3266H21.7837C21.32 15.3266 20.9437 15.7029 20.9437 16.1666C20.9437 16.6304 21.32 17.0066 21.7837 17.0066H23.245V18.4679C23.245 18.9316 23.6212 19.3079 24.085 19.3079C24.5487 19.3079 24.925 18.9316 24.925 18.4679V17.0066H26.3862C26.85 17.0066 27.2262 16.6304 27.2262 16.1666C27.2262 15.7029 26.85 15.3266 26.3862 15.3266Z" fill="#8161F6"/>
</svg>
