<svg width="24" height="25" viewBox="0 0 24 25" fill="none" xmlns="http://www.w3.org/2000/svg">
<path d="M15.8504 21.87C15.0804 22.83 13.6404 23.48 12.0004 23.48C10.3604 23.48 8.92039 22.83 8.15039 21.87" stroke="#8161F6" stroke-width="1.5" stroke-miterlimit="10" stroke-linecap="round"/>
<path d="M14.6606 1.84998C16.9306 1.84998 18.7806 3.73998 18.7806 6.06998V11.23C18.7806 13.1 19.5906 14.86 21.0006 16.06C21.3606 16.37 21.5006 16.87 21.3606 17.34C21.2406 17.74 20.9506 18.01 20.5706 18.06C20.5106 18.06 20.4606 18.07 20.4006 18.07H3.59056C3.53056 18.07 3.48056 18.07 3.42056 18.06C3.04056 18.01 2.75056 17.74 2.63056 17.34C2.49056 16.87 2.63057 16.37 2.99057 16.07C4.40057 14.87 5.21056 13.11 5.21056 11.24V6.07998C5.21056 3.74998 7.06057 1.85997 9.33057 1.85997H14.6606M14.6606 0.349976H9.33057C6.23057 0.349976 3.71056 2.91998 3.71056 6.06998V11.23C3.71056 12.66 3.09056 14 2.02056 14.92C1.21056 15.61 0.890565 16.72 1.20056 17.76C1.49056 18.73 2.26056 19.41 3.23056 19.54C3.35056 19.56 3.48056 19.56 3.60056 19.56H20.4106C20.5306 19.56 20.6606 19.56 20.7806 19.54C21.7506 19.41 22.5206 18.73 22.8106 17.76C23.1206 16.72 22.7906 15.6 21.9806 14.91C20.9106 14 20.2906 12.65 20.2906 11.23V6.06998C20.2906 2.91998 17.7706 0.349976 14.6706 0.349976H14.6606Z" fill="#8161F6"/>
</svg>
