<svg width="24" height="25" viewBox="0 0 24 25" fill="none" xmlns="http://www.w3.org/2000/svg">
<path d="M15.8501 21.8691C15.0801 22.8291 13.6401 23.4791 12.0001 23.4791C10.3601 23.4791 8.92015 22.8291 8.15015 21.8691" stroke="#8161F6" stroke-width="1.5" stroke-miterlimit="10" stroke-linecap="round"/>
<path d="M14.6601 1.84961C16.9301 1.84961 18.7801 3.73961 18.7801 6.06961V11.2296C18.7801 13.0996 19.5901 14.8596 21.0001 16.0596C21.3601 16.3696 21.5001 16.8696 21.3601 17.3396C21.2401 17.7396 20.9501 18.0096 20.5701 18.0596C20.5101 18.0596 20.4601 18.0696 20.4001 18.0696H3.59008C3.53008 18.0696 3.48007 18.0696 3.42007 18.0596C3.04007 18.0096 2.75008 17.7396 2.63008 17.3396C2.49008 16.8696 2.63008 16.3696 2.99008 16.0696C4.40008 14.8696 5.21007 13.1096 5.21007 11.2396V6.07961C5.21007 3.74961 7.06008 1.85961 9.33008 1.85961H14.6601M14.6601 0.349609H9.33008C6.23008 0.349609 3.71007 2.91961 3.71007 6.06961V11.2296C3.71007 12.6596 3.09008 13.9996 2.02008 14.9196C1.21008 15.6096 0.890076 16.7196 1.20008 17.7596C1.49008 18.7296 2.26008 19.4096 3.23008 19.5396C3.35008 19.5596 3.48007 19.5596 3.60007 19.5596H20.4101C20.5301 19.5596 20.6601 19.5596 20.7801 19.5396C21.7501 19.4096 22.5201 18.7296 22.8101 17.7596C23.1201 16.7196 22.7901 15.5996 21.9801 14.9096C20.9101 13.9996 20.2901 12.6496 20.2901 11.2296V6.06961C20.2901 2.91961 17.7701 0.349609 14.6701 0.349609H14.6601Z" fill="#8161F6"/>
</svg>
