<svg width="24" height="30" viewBox="0 0 24 30" fill="none" xmlns="http://www.w3.org/2000/svg">
<path fill-rule="evenodd" clip-rule="evenodd" d="M12.3 9.4C11.3611 9.4 10.6 8.63888 10.6 7.7C10.6 6.76112 11.3611 6 12.3 6C13.2389 6 14 6.76112 14 7.7C14 8.15087 13.8209 8.58327 13.5021 8.90208C13.1833 9.22089 12.7509 9.4 12.3 9.4Z" fill="#818181"/>
<path fill-rule="evenodd" clip-rule="evenodd" d="M12.3 16.4C11.3611 16.4 10.6 15.6389 10.6 14.7C10.6 13.7611 11.3611 13 12.3 13C13.2389 13 14 13.7611 14 14.7C14 15.6389 13.2389 16.4 12.3 16.4Z" fill="#818181"/>
<path fill-rule="evenodd" clip-rule="evenodd" d="M12.3 23.4C11.3611 23.4 10.6 22.6389 10.6 21.7C10.6 20.7611 11.3611 20 12.3 20C13.2389 20 14 20.7611 14 21.7C14 22.6389 13.2389 23.4 12.3 23.4Z" fill="#818181"/>
</svg>
