<svg width="24" height="24" viewBox="0 0 24 24" fill="none" xmlns="http://www.w3.org/2000/svg">
<path fill-rule="evenodd" clip-rule="evenodd" d="M11.9 6.9998C11.0163 6.9998 10.3 6.28346 10.3 5.3998C10.3 4.51615 11.0163 3.7998 11.9 3.7998C12.7837 3.7998 13.5 4.51615 13.5 5.3998C13.5 5.82415 13.3314 6.23112 13.0314 6.53118C12.7313 6.83123 12.3243 6.9998 11.9 6.9998Z" fill="#666666"/>
<path fill-rule="evenodd" clip-rule="evenodd" d="M11.9 13.6365C11.0163 13.6365 10.3 12.9202 10.3 12.0365C10.3 11.1529 11.0163 10.4365 11.9 10.4365C12.7837 10.4365 13.5 11.1529 13.5 12.0365C13.5 12.9202 12.7837 13.6365 11.9 13.6365Z" fill="#666666"/>
<path fill-rule="evenodd" clip-rule="evenodd" d="M11.9 20.2723C11.0163 20.2723 10.3 19.5559 10.3 18.6723C10.3 17.7886 11.0163 17.0723 11.9 17.0723C12.7837 17.0723 13.5 17.7886 13.5 18.6723C13.5 19.5559 12.7837 20.2723 11.9 20.2723Z" fill="#666666"/>
</svg>
