<svg width="30" height="30" viewBox="0 0 30 30" fill="none" xmlns="http://www.w3.org/2000/svg">
<path fill-rule="evenodd" clip-rule="evenodd" d="M22.491 23.6809V7.39683C22.4967 6.76646 22.2368 6.15979 21.7685 5.71029C21.3002 5.26079 20.6619 5.00529 19.994 5H10.0058C9.33795 5.00529 8.69964 5.26079 8.23135 5.71029C7.76306 6.15979 7.50315 6.76646 7.5088 7.39683V23.6809C7.44944 24.1511 7.69403 24.6091 8.12977 24.8438C8.56551 25.0785 9.10775 25.0442 9.50643 24.7568L14.2508 20.8905C14.6785 20.5262 15.3288 20.5262 15.7565 20.8905L20.4934 24.7579C20.8923 25.0456 21.4349 25.0798 21.8707 24.8448C22.3066 24.6098 22.551 24.1513 22.491 23.6809Z" fill="#7B50FF" stroke="#7B50FF" stroke-width="2" stroke-linecap="round" stroke-linejoin="round"/>
</svg>
