<svg width="24" height="26" viewBox="0 0 24 26" fill="none" xmlns="http://www.w3.org/2000/svg">
<path d="M12.0024 2.7472C13.619 2.7472 14.9294 4.05763 14.9294 5.67423C14.9294 7.29083 13.619 8.60125 12.0024 8.60125C10.3858 8.60125 9.07533 7.29083 9.07533 5.67423C9.07533 4.05763 10.3858 2.7472 12.0024 2.7472ZM12.0024 0.910156C9.36925 0.910156 7.23828 3.04113 7.23828 5.67423C7.23828 8.30732 9.36925 10.4383 12.0024 10.4383C14.6354 10.4383 16.7664 8.30732 16.7664 5.67423C16.7664 3.04113 14.6354 0.910156 12.0024 0.910156Z" fill="#ACACAC"/>
<path d="M16.0805 13.9904C18.6401 13.9904 20.7221 16.0723 20.7221 18.632C20.7221 21.1916 18.6401 23.2735 16.0805 23.2735H7.89954C5.33992 23.2735 3.25794 21.1916 3.25794 18.632C3.25794 16.0723 5.33992 13.9904 7.89954 13.9904H16.0805ZM16.0805 12.1533H7.89954C4.32342 12.1533 1.4209 15.0558 1.4209 18.632C1.4209 22.2081 4.32342 25.1106 7.89954 25.1106H16.0805C19.6566 25.1106 22.5592 22.2081 22.5592 18.632C22.5592 15.0558 19.6566 12.1533 16.0805 12.1533Z" fill="#ACACAC"/>
</svg>
