<svg width="45" height="38" viewBox="0 0 45 38" fill="none" xmlns="http://www.w3.org/2000/svg">
<g clip-path="url(#clip0_323_16904)">
<path d="M40.5012 2.6748H4.49681C2.28889 2.6748 0.499023 4.45056 0.499023 6.64107V34.0322C0.499023 36.2227 2.28889 37.9985 4.49681 37.9985H40.5012C42.7092 37.9985 44.499 36.2227 44.499 34.0322V6.64107C44.499 4.45056 42.7092 2.6748 40.5012 2.6748Z" fill="#EBE6FF"/>
<path d="M14.4351 10.001H6.96721C6.268 10.001 5.70117 10.4818 5.70117 11.075V15.9269C5.70117 16.5201 6.268 17.001 6.96721 17.001H14.4351C15.1343 17.001 15.7012 16.5201 15.7012 15.9269V11.075C15.7012 10.4818 15.1343 10.001 14.4351 10.001Z" fill="#DDD6FB"/>
<path d="M26.3316 10.001H18.8637C18.1645 10.001 17.5977 10.4818 17.5977 11.075V15.9269C17.5977 16.5201 18.1645 17.001 18.8637 17.001H26.3316C27.0308 17.001 27.5977 16.5201 27.5977 15.9269V11.075C27.5977 10.4818 27.0308 10.001 26.3316 10.001Z" fill="#DDD6FB"/>
<path d="M38.2271 10.001H30.7592C30.06 10.001 29.4932 10.4818 29.4932 11.075V15.9269C29.4932 16.5201 30.06 17.001 30.7592 17.001H38.2271C38.9263 17.001 39.4932 16.5201 39.4932 15.9269V11.075C39.4932 10.4818 38.9263 10.001 38.2271 10.001Z" fill="#DDD6FB"/>
<path d="M14.4342 18.2383H6.96623C6.26702 18.2383 5.7002 18.7192 5.7002 19.3123V24.1642C5.7002 24.7574 6.26702 25.2383 6.96623 25.2383H14.4342C15.1334 25.2383 15.7002 24.7574 15.7002 24.1642V19.3123C15.7002 18.7192 15.1334 18.2383 14.4342 18.2383Z" fill="#DDD6FB"/>
<path d="M26.3316 18.2383H18.8637C18.1645 18.2383 17.5977 18.7192 17.5977 19.3123V24.1642C17.5977 24.7574 18.1645 25.2383 18.8637 25.2383H26.3316C27.0308 25.2383 27.5977 24.7574 27.5977 24.1642V19.3123C27.5977 18.7192 27.0308 18.2383 26.3316 18.2383Z" fill="#DDD6FB"/>
<path d="M38.2281 18.2383H30.7602C30.061 18.2383 29.4941 18.7192 29.4941 19.3123V24.1642C29.4941 24.7574 30.061 25.2383 30.7602 25.2383H38.2281C38.9273 25.2383 39.4941 24.7574 39.4941 24.1642V19.3123C39.4941 18.7192 38.9273 18.2383 38.2281 18.2383Z" fill="#DDD6FB"/>
<path d="M14.4342 26.4688H6.96623C6.26702 26.4688 5.7002 26.9496 5.7002 27.5428V32.3947C5.7002 32.9879 6.26702 33.4688 6.96623 33.4688H14.4342C15.1334 33.4688 15.7002 32.9879 15.7002 32.3947V27.5428C15.7002 26.9496 15.1334 26.4688 14.4342 26.4688Z" fill="#DDD6FB"/>
<path d="M26.3316 26.4688H18.8637C18.1645 26.4688 17.5977 26.9496 17.5977 27.5428V32.3947C17.5977 32.9879 18.1645 33.4688 18.8637 33.4688H26.3316C27.0308 33.4688 27.5977 32.9879 27.5977 32.3947V27.5428C27.5977 26.9496 27.0308 26.4688 26.3316 26.4688Z" fill="#DDD6FB"/>
<path d="M38.2281 26.4688H30.7602C30.061 26.4688 29.4941 26.9496 29.4941 27.5428V32.3947C29.4941 32.9879 30.061 33.4688 30.7602 33.4688H38.2281C38.9273 33.4688 39.4941 32.9879 39.4941 32.3947V27.5428C39.4941 26.9496 38.9273 26.4688 38.2281 26.4688Z" fill="#DDD6FB"/>
<path d="M35.2544 -0.00195312H35.1706C34.5899 -0.00195312 34.1191 0.465099 34.1191 1.04124V5.94879C34.1191 6.52493 34.5899 6.99198 35.1706 6.99198H35.2544C35.8351 6.99198 36.3059 6.52493 36.3059 5.94879V1.04124C36.3059 0.465099 35.8351 -0.00195312 35.2544 -0.00195312Z" fill="#7D63EA"/>
<path d="M26.3482 -0.00195312H26.2644C25.6837 -0.00195312 25.2129 0.465099 25.2129 1.04124V5.94879C25.2129 6.52493 25.6837 6.99198 26.2644 6.99198H26.3482C26.9289 6.99198 27.3996 6.52493 27.3996 5.94879V1.04124C27.3996 0.465099 26.9289 -0.00195312 26.3482 -0.00195312Z" fill="#7D63EA"/>
<path d="M17.4439 -0.00195312H17.3601C16.7794 -0.00195312 16.3086 0.465099 16.3086 1.04124V5.94879C16.3086 6.52493 16.7794 6.99198 17.3601 6.99198H17.4439C18.0246 6.99198 18.4953 6.52493 18.4953 5.94879V1.04124C18.4953 0.465099 18.0246 -0.00195312 17.4439 -0.00195312Z" fill="#7D63EA"/>
<path d="M8.53762 -0.00195312H8.45382C7.87311 -0.00195312 7.40234 0.465099 7.40234 1.04124V5.94879C7.40234 6.52493 7.87311 6.99198 8.45382 6.99198H8.53762C9.11833 6.99198 9.5891 6.52493 9.5891 5.94879V1.04124C9.5891 0.465099 9.11833 -0.00195312 8.53762 -0.00195312Z" fill="#7D63EA"/>
</g>
<defs>
<clipPath id="clip0_323_16904">
<rect width="44" height="38" fill="white" transform="translate(0.5)"/>
</clipPath>
</defs>
</svg>
