<svg width="45" height="45" viewBox="0 0 45 45" fill="none" xmlns="http://www.w3.org/2000/svg">
<g clip-path="url(#clip0_235_19270)">
<path fill-rule="evenodd" clip-rule="evenodd" d="M0.0507812 22.1008C0.0507812 9.94178 9.94178 0.0507812 22.1008 0.0507812C34.2598 0.0507812 44.1508 9.94178 44.1508 22.1008C44.1508 34.2598 34.2598 44.1508 22.1008 44.1508C9.94178 44.1508 0.0507812 34.2598 0.0507812 22.1008Z" fill="#8161F6"/>
<path d="M30.8938 11.9708C30.737 10.6966 29.8254 9.69683 28.6786 9.54C28.5708 9.5204 28.4728 9.50079 28.3552 9.50079H15.8581C15.7503 9.50079 15.6425 9.5204 15.5346 9.54C14.3879 9.69683 13.4763 10.6966 13.3195 11.9708C13.2999 12.0982 13.2803 12.2256 13.2803 12.3531V32.5248C13.2803 33.3188 13.6723 34.0441 14.2996 34.4361C14.5937 34.6126 14.9171 34.7008 15.2406 34.7008C15.5641 34.7008 15.9071 34.6028 16.1914 34.4263L18.4751 33.0933L21.8959 31.0938C21.9547 31.0546 22.0233 31.035 22.0919 31.035C22.1606 31.035 22.2292 31.0546 22.288 31.0938L25.7087 33.0933L27.9925 34.4263C28.2866 34.6028 28.6198 34.7008 28.9433 34.7008C29.2667 34.7008 29.6 34.6126 29.8842 34.4361C30.5115 34.0539 30.9036 33.3188 30.9036 32.5248V12.3531C30.9036 12.2256 30.884 12.0982 30.8644 11.9708H30.8938ZM23.2289 29.4373C22.8859 29.2315 22.5036 29.1139 22.1115 29.1139C21.7195 29.1139 21.3274 29.2217 20.9942 29.4373L15.2896 32.7601C15.2112 32.7503 15.1328 32.6915 15.1328 32.5346V12.3531C15.1328 11.8532 15.4562 11.4415 15.8581 11.4415H28.3552C28.7571 11.4415 29.0805 11.8532 29.0805 12.3531V32.5248C29.0805 32.6817 29.0021 32.7405 28.9237 32.7503L23.2191 29.4275L23.2289 29.4373Z" fill="white"/>
</g>
<defs>
<clipPath id="clip0_235_19270">
<rect width="44.1" height="44.1" fill="white" transform="translate(0.0507812 0.0507812)"/>
</clipPath>
</defs>
</svg>
