<svg width="107" height="44" viewBox="0 0 107 44" fill="none" xmlns="http://www.w3.org/2000/svg">
<path d="M2.2576 38.7808C3.3472 40.2512 4.8064 41.3696 6.5936 42.1024C8.3648 42.8304 10.3872 43.1984 12.6064 43.1984C14.944 43.1984 17.024 42.808 18.7888 42.0368C20.5664 41.2608 21.9984 40.1296 23.0448 38.6768C24.0896 37.2256 24.72 35.6 24.92 33.8464C25.1136 32.1328 25.2128 29.1888 25.2128 25.0944V18.1056C25.2128 13.9088 25.1104 10.9248 24.9072 9.2384C24.6992 7.5088 24.0416 5.8864 22.9536 4.4192C21.864 2.9488 20.4048 1.832 18.6176 1.0976C16.8464 0.368 14.824 0 12.6064 0C10.2688 0 8.1888 0.3904 6.424 1.1616C4.6464 1.9376 3.2144 3.0688 2.168 4.5216C1.1216 5.9744 0.4912 7.5984 0.2928 9.3536C0.0992 11.064 0 14.008 0 18.1056V25.0944C0 29.2928 0.1024 32.2752 0.3056 33.9616C0.5136 35.6912 1.1696 37.3136 2.2592 38.7808H2.2576ZM11.2608 11.672C11.2608 9.0144 11.5024 8.2656 11.6464 8.056C11.8784 7.7168 12.2096 7.552 12.656 7.552C13.3424 7.552 13.5568 7.8896 13.6576 8.144C13.7904 8.4816 13.9504 9.3664 13.9504 11.672V30.4416C13.9504 32.8016 13.8528 34.3056 13.6624 34.912C13.504 35.4128 13.16 35.6464 12.5792 35.6464C11.8336 35.6464 11.624 35.2944 11.5312 35.0288C11.4064 34.672 11.2592 33.64 11.2592 30.744V11.672H11.2608Z" fill="#7B50FF"/>
<path d="M61.6527 0.858286H48.7567C48.3503 0.858286 48.0047 1.16229 47.9535 1.56549L46.0239 16.6471C46.0079 16.7751 45.9119 16.7959 45.8559 16.7959H45.8543C45.7983 16.7959 45.7039 16.7767 45.6863 16.6503L44.6943 9.81669C44.2879 6.68069 43.8847 3.89349 43.5007 1.53509C43.4367 1.14149 43.1007 0.856689 42.7007 0.856689H29.8623C29.4159 0.856689 29.0527 1.21989 29.0527 1.66789V41.5319C29.0527 41.9783 29.4159 42.3415 29.8623 42.3415H38.1663C38.6127 42.3415 38.9759 41.9783 38.9759 41.5319L38.9855 21.8711C38.9855 21.7335 39.0847 21.7047 39.1439 21.7015C39.2031 21.6967 39.3055 21.7111 39.3247 21.8471L42.1887 41.6471C42.2463 42.0423 42.5903 42.3415 42.9903 42.3415H48.7215C49.1263 42.3415 49.4703 42.0391 49.5247 41.6391L52.1903 21.7511C52.2095 21.6135 52.3103 21.6007 52.3711 21.6039C52.4303 21.6071 52.5295 21.6359 52.5295 21.7735L52.5391 41.5319C52.5391 41.9783 52.9023 42.3415 53.3487 42.3415H61.6527C62.0991 42.3415 62.4623 41.9783 62.4623 41.5319V1.66789C62.4623 1.22149 62.0991 0.856689 61.6527 0.856689V0.858286Z" fill="#7B50FF"/>
<path d="M106.794 1.14711C106.641 0.975909 106.422 0.878311 106.191 0.878311H97.2711C96.8695 0.878311 96.5239 1.17911 96.4679 1.57591C95.4759 8.65591 94.6839 15.9599 94.1127 23.2831C94.1015 23.4207 94.0023 23.4415 93.9431 23.4415C93.8903 23.4367 93.7847 23.4207 93.7735 23.2847L93.1367 14.6319C92.5879 7.62871 92.2247 3.24631 92.0567 1.60471C92.0135 1.19031 91.6679 0.878311 91.2503 0.878311H81.3911C80.9863 0.878311 80.6407 1.18231 80.5879 1.58391C79.5335 9.61111 78.7479 16.6559 78.2535 22.5215C78.2423 22.6559 78.1431 22.6767 78.0855 22.6767C78.0263 22.6767 77.9255 22.6559 77.9159 22.5183L76.3143 1.62551C76.2823 1.20631 75.9271 0.876709 75.5063 0.876709H66.4727C66.2423 0.876709 66.0215 0.975909 65.8679 1.14711C65.7143 1.31991 65.6407 1.54871 65.6679 1.77751L70.1815 41.6015C70.2279 42.0111 70.5735 42.3199 70.9863 42.3199H82.9479C83.3495 42.3199 83.6951 42.0191 83.7511 41.6207C84.7847 34.1967 85.5639 28.4735 86.0711 24.6127C86.0887 24.4847 86.1831 24.4655 86.2391 24.4655C86.2967 24.4687 86.3927 24.4847 86.4087 24.6143C87.1751 30.8335 88.0455 36.5679 88.9943 41.6607C89.0663 42.0431 89.4007 42.3215 89.7911 42.3215H101.844C102.258 42.3215 102.604 42.0111 102.65 41.5983L106.999 1.77591C107.025 1.54711 106.951 1.31831 106.798 1.14711H106.794Z" fill="#7B50FF"/>
</svg>
