<svg width="24" height="24" viewBox="0 0 24 24" fill="none" xmlns="http://www.w3.org/2000/svg">
<path d="M11.6634 5.80937C11.8011 5.53034 12.199 5.53034 12.3367 5.80937L14.1194 9.42145C14.1741 9.53226 14.2798 9.60906 14.402 9.62682L18.3882 10.206C18.6961 10.2508 18.8191 10.6292 18.5963 10.8464L15.7119 13.658C15.6234 13.7443 15.583 13.8685 15.6039 13.9903L16.2848 17.9604C16.3374 18.2671 16.0155 18.5009 15.7401 18.3561L12.1747 16.4817C12.0654 16.4242 11.9347 16.4242 11.8253 16.4817L8.26001 18.3561C7.98459 18.5009 7.66269 18.2671 7.71529 17.9604L8.39621 13.9903C8.4171 13.8685 8.37672 13.7443 8.28824 13.658L5.40382 10.8464C5.181 10.6292 5.30396 10.2508 5.61189 10.206L9.59806 9.62682C9.72033 9.60906 9.82604 9.53226 9.88073 9.42145L11.6634 5.80937Z" fill="#FFCB44" stroke="#FFCB44" stroke-linejoin="round"/>
<circle cx="12" cy="12" r="11.5" stroke="#FFCB44"/>
</svg>
