<svg width="49" height="59" viewBox="0 0 49 59" fill="none" xmlns="http://www.w3.org/2000/svg">
<path fill-rule="evenodd" clip-rule="evenodd" d="M5.90459 12.0014C-0.0268884 20.9038 0.80885 31.9893 8.34814 39.5C8.34814 39.5 12.6189 43.7951 17.0459 48.2491C18.9967 50.2118 21.6801 54.0347 23.2383 56.3435C23.8374 57.2312 25.1626 57.2312 25.7617 56.3435C27.32 54.0347 30.0034 50.2118 31.9541 48.2491C35.6805 44.5 40.6519 39.5 40.6519 39.5C48.1912 31.9893 49.0268 20.9038 43.0954 12.0014C40.6178 8.28396 37.1266 5.4006 33.0596 3.71295C27.5699 1.42902 21.4301 1.42902 15.9403 3.71295C11.8733 5.4006 8.38212 8.28396 5.90459 12.0014Z" fill="#CEA8FF" stroke="#7B50FF" stroke-width="2.94118" stroke-linecap="round" stroke-linejoin="round"/>
<path fill-rule="evenodd" clip-rule="evenodd" d="M24.4931 30.7496C28.2482 30.672 31.2372 27.5601 31.186 23.7818C31.1348 20.0035 28.0625 16.9748 24.3067 17.0002C20.5509 17.0255 17.5193 20.0954 17.5186 23.8741C17.558 27.7101 20.6802 30.788 24.4931 30.7496Z" fill="white" stroke="#7B50FF" stroke-width="2.94118" stroke-linecap="round" stroke-linejoin="round"/>
</svg>
