<svg width="48" height="48" viewBox="0 0 48 48" fill="none" xmlns="http://www.w3.org/2000/svg">
<circle cx="24" cy="24" r="24" fill="#7B50FF"/>
<path fill-rule="evenodd" clip-rule="evenodd" d="M31.491 32.6809V16.3968C31.4967 15.7665 31.2368 15.1598 30.7685 14.7103C30.3002 14.2608 29.6619 14.0053 28.994 14H19.0058C18.3379 14.0053 17.6996 14.2608 17.2313 14.7103C16.7631 15.1598 16.5031 15.7665 16.5088 16.3968V32.6809C16.4494 33.1511 16.694 33.6091 17.1298 33.8438C17.5655 34.0785 18.1078 34.0442 18.5064 33.7568L23.2508 29.8905C23.6785 29.5262 24.3288 29.5262 24.7565 29.8905L29.4934 33.7579C29.8923 34.0456 30.4349 34.0798 30.8707 33.8448C31.3066 33.6098 31.551 33.1513 31.491 32.6809Z" fill="white" stroke="white" stroke-width="2" stroke-linecap="round" stroke-linejoin="round"/>
</svg>
