<svg width="42" height="42" viewBox="0 0 42 42" fill="none" xmlns="http://www.w3.org/2000/svg">
<g clip-path="url(#clip0_346_38078)">
<path fill-rule="evenodd" clip-rule="evenodd" d="M0 21C0 9.42 9.42 0 21 0C32.58 0 42 9.42 42 21C42 32.58 32.58 42 21 42C9.42 42 0 32.58 0 21Z" fill="#8161F6"/>
<path d="M26.9658 10.8483H15.0638C14.6811 10.8483 14.373 11.2404 14.373 11.7165V30.9277C14.373 31.077 14.4477 31.133 14.5224 31.1424L19.9553 27.9778C20.282 27.7818 20.6461 27.6698 21.0195 27.6698C21.3929 27.6698 21.7663 27.7725 22.0837 27.9778L27.5166 31.1424C27.5912 31.133 27.6659 31.077 27.6659 30.9277V11.7165C27.6659 11.2404 27.3579 10.8483 26.9751 10.8483H26.9658Z" fill="white"/>
<path d="M29.3744 11.3524C29.225 10.1389 28.3569 9.1867 27.2647 9.03734C27.162 9.01867 27.0687 9 26.9567 9H15.0547C14.952 9 14.8493 9.01867 14.7466 9.03734C13.6545 9.1867 12.7863 10.1389 12.6369 11.3524C12.6183 11.4737 12.5996 11.5951 12.5996 11.7165V30.9277C12.5996 31.6838 12.973 32.3746 13.5704 32.748C13.8505 32.916 14.1585 33 14.4666 33C14.7746 33 15.1014 32.9067 15.3721 32.7386L17.5471 31.4691L20.805 29.5648C20.861 29.5274 20.9263 29.5088 20.9917 29.5088C21.057 29.5088 21.1224 29.5274 21.1784 29.5648L24.4362 31.4691L26.6113 32.7386C26.8913 32.9067 27.2087 33 27.5168 33C27.8248 33 28.1422 32.916 28.4129 32.748C29.0103 32.3839 29.3837 31.6838 29.3837 30.9277V11.7165C29.3837 11.5951 29.3651 11.4737 29.3464 11.3524H29.3744ZM22.0745 27.9872C21.7478 27.7911 21.3837 27.6791 21.0103 27.6791C20.6369 27.6791 20.2636 27.7818 19.9462 27.9872L14.5133 31.1517C14.4386 31.1424 14.3639 31.0863 14.3639 30.937V11.7165C14.3639 11.2404 14.672 10.8483 15.0547 10.8483H26.9567C27.3394 10.8483 27.6475 11.2404 27.6475 11.7165V30.9277C27.6475 31.077 27.5728 31.133 27.4981 31.1424L22.0652 27.9778L22.0745 27.9872Z" fill="white"/>
</g>
<defs>
<clipPath id="clip0_346_38078">
<rect width="42" height="42" fill="white"/>
</clipPath>
</defs>
</svg>
