<svg width="33" height="32" viewBox="0 0 33 32" fill="none" xmlns="http://www.w3.org/2000/svg">
<rect x="0.5" width="32" height="32" rx="16" fill="#D4D4D4"/>
<path d="M18.3254 7.5L17.712 20.1133H15.2854L14.6987 7.5H18.3254ZM16.512 26.3267C15.9254 26.3267 15.4454 26.1489 15.072 25.7933C14.6987 25.42 14.512 24.9667 14.512 24.4333C14.512 23.9 14.6987 23.4556 15.072 23.1C15.4454 22.7444 15.9254 22.5667 16.512 22.5667C17.0809 22.5667 17.552 22.7444 17.9254 23.1C18.3165 23.4556 18.512 23.9 18.512 24.4333C18.512 24.9667 18.3165 25.42 17.9254 25.7933C17.552 26.1489 17.0809 26.3267 16.512 26.3267Z" fill="white"/>
</svg>
