<svg width="32" height="32" viewBox="0 0 32 32" fill="none" xmlns="http://www.w3.org/2000/svg">
<mask id="mask0_65_8690" style="mask-type:alpha" maskUnits="userSpaceOnUse" x="0" y="0" width="32" height="32">
<rect width="32" height="32" rx="8" fill="#D9D9D9"/>
</mask>
<g mask="url(#mask0_65_8690)">
<path d="M25 -1H7C2.58172 -1 -1 2.58172 -1 7V25C-1 29.4183 2.58172 33 7 33H25C29.4183 33 33 29.4183 33 25V7C33 2.58172 29.4183 -1 25 -1Z" fill="#7B50FF"/>
<path d="M5.69118 19.4196C5.69118 19.4195 5.69129 19.4195 5.69134 19.4196C5.90807 19.7122 6.19861 19.9347 6.55446 20.0807C6.90721 20.2258 7.3099 20.2991 7.75137 20.2991C8.21674 20.2991 8.63112 20.2215 8.98227 20.068C9.33609 19.9134 9.62137 19.6882 9.82962 19.3992C10.0379 19.1102 10.1632 18.7866 10.2031 18.4376C10.2419 18.0965 10.2615 17.51 10.2615 16.6951V15.3038C10.2615 14.4681 10.2413 13.8742 10.2004 13.5384C10.159 13.1942 10.0283 12.8712 9.81155 12.579C9.5948 12.2862 9.30421 12.0637 8.94827 11.9176C8.59552 11.7725 8.19284 11.6992 7.75137 11.6992C7.28599 11.6992 6.87162 11.7768 6.52046 11.9303C6.16665 12.0849 5.88137 12.3102 5.67312 12.5992C5.46487 12.8882 5.33949 13.2117 5.29965 13.5612C5.26087 13.9018 5.24121 14.4878 5.24121 15.3038V16.6951C5.24121 17.5307 5.2614 18.1247 5.3023 18.4604C5.34373 18.8046 5.47437 19.1275 5.69102 19.4197C5.69107 19.4197 5.69118 19.4197 5.69118 19.4196V19.4196ZM7.48335 14.0224C7.4835 14.0224 7.48362 14.0222 7.48362 14.0221C7.48363 13.4932 7.53197 13.344 7.56065 13.3025C7.60687 13.2351 7.67274 13.2021 7.76146 13.2021C7.89799 13.2021 7.94102 13.2696 7.96068 13.3201C7.98724 13.3875 8.01912 13.5634 8.01912 14.0224V17.7592C8.01912 18.2288 7.99946 18.5284 7.96174 18.649C7.9304 18.7489 7.86187 18.7951 7.74605 18.7951C7.59784 18.7951 7.55587 18.725 7.53727 18.6724C7.5123 18.6012 7.48309 18.3962 7.48309 17.8192V14.0226C7.48309 14.0225 7.4832 14.0224 7.48335 14.0224V14.0224Z" fill="white"/>
<path d="M17.5168 11.8697H14.9493C14.8686 11.8697 14.7995 11.9302 14.7894 12.0105L14.4053 15.0131C14.4021 15.0386 14.383 15.0428 14.3719 15.0428C14.3607 15.0428 14.3421 15.0391 14.3384 15.0136L14.1408 13.6531C14.06 13.0289 13.9798 12.4737 13.9033 12.0041C13.8905 11.9255 13.8236 11.8691 13.7439 11.8691H11.1881C11.0993 11.8691 11.0271 11.9414 11.0271 12.0306V19.9675C11.0271 20.0562 11.0993 20.1285 11.1881 20.1285H12.8413C12.93 20.1285 13.0023 20.0562 13.0023 19.9675L13.0044 16.0533C13.0044 16.0256 13.0241 16.0203 13.0358 16.0193C13.0474 16.0182 13.0682 16.0214 13.0719 16.0485L13.6419 19.9904C13.6536 20.069 13.7221 20.1285 13.8013 20.1285H14.9424C15.0232 20.1285 15.0917 20.0685 15.1023 19.9888L15.633 16.0294C15.6368 16.0017 15.6569 15.9996 15.6692 16.0001C15.6808 16.0007 15.7005 16.0065 15.7005 16.0341L15.7026 19.968C15.7026 20.0568 15.7749 20.129 15.8636 20.129H17.5168C17.6056 20.129 17.6778 20.0568 17.6778 19.968V12.0312C17.6778 11.9425 17.6056 11.8697 17.5168 11.8697Z" fill="white"/>
<path d="M26.5036 11.9249C26.5037 11.9251 26.5035 11.9252 26.5034 11.9251C26.4726 11.8915 26.4293 11.8722 26.384 11.8722H24.608C24.5278 11.8722 24.4592 11.9322 24.4481 12.0108C24.2505 13.4202 24.0927 14.8748 23.979 16.3325C23.9769 16.3602 23.9572 16.3639 23.945 16.3639C23.9344 16.3628 23.9136 16.3596 23.911 16.3325L23.784 14.6097C23.6746 13.2152 23.6023 12.3428 23.5689 12.0161C23.5604 11.9338 23.4913 11.8716 23.4084 11.8716H21.4455C21.3647 11.8716 21.2962 11.9322 21.2856 12.0119C21.0757 13.6099 20.919 15.0124 20.8207 16.1806C20.8186 16.2072 20.7989 16.2114 20.7872 16.2114C20.7756 16.2114 20.7554 16.2072 20.7532 16.1801L20.4345 12.0204C20.4281 11.937 20.3575 11.8711 20.2735 11.8711H18.4752C18.4296 11.8711 18.3855 11.8907 18.3546 11.9247C18.3238 11.9593 18.3095 12.005 18.3148 12.0501L19.2137 19.979C19.2227 20.0608 19.2918 20.1219 19.3741 20.1219H21.7557C21.8359 20.1219 21.9045 20.0619 21.9156 19.9827C22.1212 18.5048 22.2763 17.3653 22.3773 16.5966C22.381 16.5711 22.3996 16.5673 22.4107 16.5673C22.4224 16.5679 22.4416 16.5711 22.4447 16.5971C22.5972 17.8354 22.7704 18.9771 22.9595 19.9907C22.9739 20.0667 23.0403 20.1225 23.1184 20.1225H25.518C25.6004 20.1225 25.6694 20.0608 25.6785 19.9785L26.5444 12.0501C26.5497 12.0045 26.5349 11.9594 26.5041 11.9248C26.504 11.9248 26.504 11.9247 26.5039 11.9247H26.5037C26.5036 11.9247 26.5035 11.9249 26.5036 11.9249V11.9249Z" fill="white"/>
</g>
</svg>
