<svg width="24" height="25" viewBox="0 0 24 25" fill="none" xmlns="http://www.w3.org/2000/svg">
<g clip-path="url(#clip0_245_20008)">
<path opacity="0.977974" d="M6.65358 4.19141C4.50848 4.19141 2.76929 5.93648 2.76929 8.08884V17.8324C2.76929 19.9848 4.50848 21.7299 6.65358 21.7299H16.3643C18.5094 21.7299 20.2486 19.9848 20.2486 17.8324V13.935C20.2486 13.3971 19.8135 12.9606 19.2775 12.9606C18.7415 12.9606 18.3064 13.3971 18.3064 13.935V17.8324C18.3064 18.9091 17.4373 19.7811 16.3643 19.7811H6.65358C5.58054 19.7811 4.71143 18.9091 4.71143 17.8324V8.08884C4.71143 7.01218 5.58054 6.14012 6.65358 6.14012H14.4222C14.9582 6.14012 15.3932 5.70361 15.3932 5.16577C15.3932 4.62792 14.9582 4.19141 14.4222 4.19141H6.65358ZM20.2486 5.16577C20 5.16577 19.7398 5.25346 19.5504 5.43957L11.0836 13.783C10.834 14.0295 10.5825 14.012 10.3864 13.7216L9.4153 12.2903C9.11815 11.8509 8.49473 11.7232 8.04998 12.0165C7.60426 12.3098 7.47899 12.9168 7.77614 13.3562L8.74721 14.7876C9.62215 16.0825 11.3341 16.254 12.4499 15.1529L20.9468 6.77931C21.3255 6.40613 21.3255 5.81372 20.9468 5.43957C20.7574 5.25249 20.4972 5.16577 20.2486 5.16577Z" fill="#ACACAC"/>
</g>
<defs>
<clipPath id="clip0_245_20008">
<rect width="18.4615" height="17.5385" fill="white" transform="translate(2.76929 4.19141)"/>
</clipPath>
</defs>
</svg>
