<svg width="20" height="20" viewBox="0 0 20 20" fill="none" xmlns="http://www.w3.org/2000/svg">
<path d="M18.25 8.71428C18.25 9.12849 18.5858 9.46428 19 9.46428C19.4142 9.46428 19.75 9.12849 19.75 8.71428H18.25ZM1 13.8571L1.75 13.8581V13.8571H1ZM1.41894 17.3791C1.66699 17.7109 2.137 17.7787 2.46872 17.5306C2.80045 17.2826 2.86827 16.8126 2.62022 16.4808L1.41894 17.3791ZM19.7499 8.71426C19.7499 8.30004 19.4142 7.96426 18.9999 7.96426C18.5857 7.96426 18.2499 8.30004 18.2499 8.71426H19.7499ZM6.14281 19V18.25L6.14233 18.25L6.14281 19ZM2.62127 16.4823C2.37403 16.15 1.90419 16.081 1.57186 16.3282C1.23952 16.5755 1.17055 17.0453 1.41779 17.3776L2.62127 16.4823ZM19.5037 9.2699C19.8106 8.99169 19.8338 8.51739 19.5556 8.21051C19.2774 7.90364 18.8031 7.8804 18.4962 8.15861L19.5037 9.2699ZM12.9571 14.1927L12.4533 13.637L12.4483 13.6417L12.9571 14.1927ZM11.9792 14.5295L11.9176 15.2769L11.9176 15.2769L11.9792 14.5295ZM11.0697 14.0371L11.6618 13.5769L11.6615 13.5764L11.0697 14.0371ZM8.48666 10.7187L9.07851 10.258L9.07739 10.2566L8.48666 10.7187ZM7.44748 10.2254L7.43202 9.47559L7.44748 10.2254ZM6.42952 10.7611L5.82025 10.3238L5.8194 10.3249L6.42952 10.7611ZM1.4094 16.4938C1.16851 16.8308 1.24639 17.2992 1.58336 17.5401C1.92032 17.781 2.38877 17.7031 2.62966 17.3661L1.4094 16.4938ZM19.75 8.71428V6.14285H18.25V8.71428H19.75ZM19.75 6.14285C19.75 2.88832 17.1117 0.25 13.8571 0.25V1.75C16.2832 1.75 18.25 3.71675 18.25 6.14285H19.75ZM13.8571 0.25H6.14286V1.75H13.8571V0.25ZM6.14286 0.25C2.88833 0.25 0.250005 2.88832 0.250005 6.14285H1.75C1.75 3.71675 3.71675 1.75 6.14286 1.75V0.25ZM0.250005 6.14285V13.8571H1.75V6.14285H0.250005ZM0.250005 13.8561C0.248304 15.126 0.658464 16.3622 1.41894 17.3791L2.62022 16.4808C2.05408 15.7238 1.74874 14.8035 1.75 13.8581L0.250005 13.8561ZM18.2499 8.71426V13.8571H19.7499V8.71426H18.2499ZM18.2499 13.8571C18.2499 16.2832 16.2832 18.25 13.8571 18.25V19.75C17.1116 19.75 19.7499 17.1116 19.7499 13.8571H18.2499ZM13.8571 18.25H6.14281V19.75H13.8571V18.25ZM6.14233 18.25C4.75512 18.2508 3.44929 17.5953 2.62127 16.4823L1.41779 17.3776C2.52905 18.8713 4.28155 19.7511 6.14329 19.75L6.14233 18.25ZM18.4962 8.15861L12.4533 13.637L13.4608 14.7483L19.5037 9.2699L18.4962 8.15861ZM12.4483 13.6417C12.3381 13.7434 12.1903 13.7943 12.0408 13.782L11.9176 15.2769C12.4856 15.3238 13.0472 15.1303 13.4659 14.7437L12.4483 13.6417ZM12.0408 13.782C11.8913 13.7697 11.7539 13.6953 11.6618 13.5769L10.4775 14.4974C10.8272 14.9474 11.3496 15.2301 11.9176 15.2769L12.0408 13.782ZM11.6615 13.5764L9.07851 10.258L7.89482 11.1794L10.4778 14.4978L11.6615 13.5764ZM9.07739 10.2566C8.68247 9.75173 8.07284 9.46237 7.43202 9.47559L7.46295 10.9753C7.63159 10.9718 7.79201 11.0479 7.89594 11.1808L9.07739 10.2566ZM7.43202 9.47559C6.7912 9.48881 6.19402 9.80306 5.82025 10.3238L7.0388 11.1985C7.13716 11.0614 7.29431 10.9787 7.46295 10.9753L7.43202 9.47559ZM5.8194 10.3249L1.4094 16.4938L2.62966 17.3661L7.03965 11.1973L5.8194 10.3249Z" fill="#666666"/>
</svg>
