<svg width="17" height="17" viewBox="0 0 17 17" fill="none" xmlns="http://www.w3.org/2000/svg">
<path fill-rule="evenodd" clip-rule="evenodd" d="M13.2654 1.16231L15.2104 2.74531C15.3982 2.9283 15.5034 3.17982 15.5019 3.44201C15.5004 3.70421 15.3923 3.9545 15.2024 4.13531L13.7244 5.93531L8.69438 12.0723C8.60729 12.1749 8.49006 12.2473 8.35938 12.2793L5.75138 12.8793C5.40533 12.8936 5.10691 12.6384 5.06738 12.2943L5.18938 9.72131C5.19842 9.58995 5.25043 9.4652 5.33738 9.36631L10.1504 3.50131L11.8454 1.43331C12.1747 0.98505 12.7941 0.866839 13.2654 1.16231Z" stroke="#C9ACFF" stroke-width="1.4" stroke-linecap="round" stroke-linejoin="round"/>
<path d="M1.5 15.292C1.1134 15.292 0.8 15.6054 0.8 15.992C0.8 16.3786 1.1134 16.692 1.5 16.692V15.292ZM15.2 16.692C15.5866 16.692 15.9 16.3786 15.9 15.992C15.9 15.6054 15.5866 15.292 15.2 15.292V16.692ZM10.7991 3.23995C10.6544 2.88145 10.2465 2.70813 9.88799 2.85284C9.5295 2.99754 9.35618 3.40546 9.50088 3.76396L10.7991 3.23995ZM13.8782 6.62175C14.2553 6.53656 14.492 6.1618 14.4068 5.7847C14.3216 5.40761 13.9468 5.17097 13.5698 5.25616L13.8782 6.62175ZM1.5 16.692H15.2V15.292H1.5V16.692ZM9.50088 3.76396C9.73135 4.33494 10.2053 5.14961 10.9097 5.77604C11.6264 6.4134 12.6424 6.90093 13.8782 6.62175L13.5698 5.25616C12.9066 5.40598 12.3356 5.17051 11.84 4.72986C11.3322 4.27829 10.9687 3.65997 10.7991 3.23995L9.50088 3.76396Z" fill="#C9ACFF"/>
</svg>
