<svg width="32" height="32" viewBox="0 0 32 32" fill="none" xmlns="http://www.w3.org/2000/svg">
<path d="M22.6639 5.34985H20.5762V10.2272C20.5762 10.8842 21.1161 11.4241 21.773 11.4241H26.6504V9.33635C26.6504 7.14063 24.8596 5.34985 22.6639 5.34985Z" fill="#8161F6"/>
<path d="M19.2259 10.2272V5.34985H9.33611C7.14039 5.34985 5.34961 7.14063 5.34961 9.33635V22.6637C5.34961 24.8594 7.14039 26.6502 9.33611 26.6502H22.6634C24.8592 26.6502 26.6499 24.8594 26.6499 22.6637V12.7739H21.7726C20.3687 12.7739 19.2259 11.6311 19.2259 10.2272ZM22.6724 16.3015C22.6724 16.6704 22.3665 16.9764 21.9975 16.9764H10.002C9.63307 16.9764 9.32711 16.6704 9.32711 16.3015C9.32711 15.9325 9.63307 15.6266 10.002 15.6266H21.9975C22.3665 15.6266 22.6724 15.9325 22.6724 16.3015Z" fill="#8161F6"/>
<path d="M17.2012 19.82H10.0021C9.63311 19.82 9.32715 20.126 9.32715 20.4949C9.32715 20.8639 9.63311 21.1698 10.0021 21.1698H17.2012C17.5701 21.1698 17.8761 20.8639 17.8761 20.4949C17.8761 20.126 17.5701 19.82 17.2012 19.82Z" fill="white"/>
<path d="M9.32715 16.3014C9.32715 16.6704 9.63311 16.9764 10.0021 16.9764H21.9976C22.3665 16.9764 22.6725 16.6704 22.6725 16.3014C22.6725 15.9325 22.3665 15.6265 21.9976 15.6265H10.0021C9.63311 15.6265 9.32715 15.9325 9.32715 16.3014Z" fill="white"/>
<path d="M26.6502 12.7739V22.6637C26.6502 24.8594 24.8594 26.6502 22.6637 26.6502H9.33633C7.14061 26.6502 5.34983 24.8594 5.34983 22.6637V9.33633C5.34983 7.14061 7.14061 5.34983 9.33633 5.34983H19.2261V4H9.33633C6.4027 4 4 6.4027 4 9.33633V22.6637C4 25.5973 6.4027 28 9.33633 28H22.6637C25.5973 28 28 25.5973 28 22.6637V12.7739H26.6502Z" fill="#8161F6"/>
<path d="M19.2256 8.04949V10.2272C19.2256 11.631 20.3684 12.7739 21.7723 12.7739H27.9995V11.4241H21.7723C21.1153 11.4241 20.5754 10.8841 20.5754 10.2272V4H19.2256V8.04949Z" fill="white"/>
<path d="M22.6639 5.34983C24.8596 5.34983 26.6504 7.14061 26.6504 9.33633V11.4241H28.0002V9.33633C28.0002 6.4027 25.5975 4 22.6639 4H20.5762V5.34983H22.6639Z" fill="#8161F6"/>
</svg>
