<svg width="24" height="24" viewBox="0 0 24 24" fill="none" xmlns="http://www.w3.org/2000/svg">
<path d="M11.6634 5.80888C11.8011 5.52985 12.199 5.52985 12.3367 5.80888L14.1194 9.42097C14.1741 9.53177 14.2798 9.60857 14.402 9.62634L18.3882 10.2056C18.6961 10.2503 18.8191 10.6287 18.5963 10.8459L15.7119 13.6575C15.6234 13.7438 15.583 13.868 15.6039 13.9898L16.2848 17.9599C16.3374 18.2666 16.0155 18.5004 15.7401 18.3557L12.1747 16.4812C12.0654 16.4237 11.9347 16.4237 11.8253 16.4812L8.26001 18.3557C7.98459 18.5004 7.66269 18.2666 7.71529 17.9599L8.39621 13.9898C8.4171 13.868 8.37672 13.7438 8.28824 13.6575L5.40382 10.8459C5.181 10.6287 5.30396 10.2503 5.61189 10.2056L9.59806 9.62634C9.72033 9.60857 9.82604 9.53177 9.88073 9.42097L11.6634 5.80888Z" stroke="#EEEEEE" stroke-width="0.8" stroke-linejoin="round"/>
<circle cx="12" cy="12" r="11.6" stroke="#EEEEEE" stroke-width="0.8"/>
</svg>
