<svg width="32" height="32" viewBox="0 0 32 32" fill="none" xmlns="http://www.w3.org/2000/svg">
<path d="M15.978 5.36674C17.8367 5.36674 19.3401 6.87927 19.3401 8.72893C19.3401 10.5786 17.8276 12.0911 15.978 12.0911C14.1283 12.0911 12.6158 10.5786 12.6158 8.72893C12.6158 6.87927 14.1283 5.36674 15.978 5.36674ZM15.978 4C13.3629 4 11.249 6.11389 11.249 8.72893C11.249 11.344 13.3629 13.4579 15.978 13.4579C18.593 13.4579 20.7069 11.344 20.7069 8.72893C20.7069 6.11389 18.593 4 15.978 4Z" fill="#8161F6"/>
<path d="M20.033 16.5194C22.8212 16.5194 25.09 18.7882 25.09 21.5763C25.09 24.3645 22.8212 26.6333 20.033 26.6333H11.9237C9.13553 26.6333 6.86674 24.3645 6.86674 21.5763C6.86674 18.7882 9.13553 16.5194 11.9237 16.5194H20.033ZM20.033 15.1526H11.9237C8.37927 15.1526 5.5 18.0319 5.5 21.5763C5.5 25.1208 8.37927 28 11.9237 28H20.033C23.5774 28 26.4567 25.1208 26.4567 21.5763C26.4567 18.0319 23.5774 15.1526 20.033 15.1526Z" fill="#8161F6"/>
</svg>
