<svg width="132" height="26" viewBox="0 0 132 26" fill="none" xmlns="http://www.w3.org/2000/svg">
<g clip-path="url(#clip0_4566_15373)">
<path d="M7.47609 26C6.14541 26 4.93605 25.7804 3.88157 25.348C2.83794 24.9206 1.98468 24.2715 1.34647 23.4186C1.34252 23.4127 1.33857 23.4068 1.33463 23.4009C0.695427 22.5411 0.30875 21.5907 0.186434 20.5753C0.063131 19.551 0 17.726 0 15.1525V10.8505C0 8.34297 0.0601717 6.54161 0.178542 5.49665C0.29494 4.46744 0.665835 3.51407 1.28038 2.66116C1.89492 1.81022 2.73633 1.14739 3.78293 0.69139C4.83347 0.232433 6.07537 0 7.47609 0C8.87681 0 10.0151 0.21963 11.0696 0.652979C12.1221 1.08436 12.9793 1.74029 13.6176 2.6001C14.2577 3.46187 14.6434 4.41229 14.7657 5.42574C14.889 6.45002 14.9522 8.27501 14.9522 10.8485V15.1505C14.9522 17.656 14.892 19.4574 14.7736 20.5043C14.6563 21.5335 14.2854 22.4869 13.6718 23.3379C13.0573 24.1888 12.2158 24.8516 11.1693 25.3076C10.1197 25.7656 8.87681 25.998 7.47609 25.998V26ZM6.35058 6.86564C6.35058 6.87352 6.35058 6.8814 6.35058 6.88928V18.6291C6.35058 20.1153 6.41075 21.0106 6.53504 21.3641C6.66722 21.7423 6.98781 21.9423 7.46031 21.9423C8.07287 21.9423 8.31554 21.5838 8.41023 21.2844C8.53945 20.8747 8.6016 19.9459 8.6016 18.443V6.88928C8.6016 5.71529 8.53353 4.94807 8.40037 4.60927C8.21985 4.15326 7.81542 4.05773 7.50766 4.05773C7.13183 4.05773 6.84083 4.20546 6.64059 4.49699C6.56957 4.6004 6.35256 4.91557 6.35157 6.86564H6.35058Z" fill="#6236E9"/>
<path d="M17.3925 25.4735C17.2801 25.4735 17.1893 25.3829 17.1893 25.2706V0.733177C17.1893 0.6209 17.2801 0.529305 17.3925 0.529305H22.3454C22.4341 0.529305 22.5121 0.585444 22.5397 0.669159L25.5522 9.96156C25.6055 10.13 25.7534 10.2383 25.929 10.2383C25.9527 10.2383 25.9744 10.2363 25.9931 10.2334C26.1944 10.2029 26.3354 10.0403 26.3354 9.83746V0.732192C26.3354 0.619915 26.4262 0.52832 26.5386 0.52832H31.4086C31.5211 0.52832 31.6118 0.619915 31.6118 0.732192V25.2696C31.6118 25.3819 31.5211 25.4725 31.4086 25.4725H26.1973C26.1095 25.4725 26.0277 25.4115 26.003 25.3277L23.2529 16.1013C23.2035 15.929 23.0546 15.8147 22.8741 15.8147C22.8514 15.8147 22.8297 15.8167 22.8109 15.8197C22.6087 15.8492 22.4677 16.0117 22.4677 16.2156V25.248C22.4677 25.2558 22.4677 25.2637 22.4677 25.2716C22.4677 25.3839 22.3769 25.4745 22.2645 25.4745H17.3945L17.3925 25.4735Z" fill="#6236E9"/>
<path d="M50.9861 25.4784C50.8737 25.4784 50.7829 25.3878 50.7829 25.2755L50.777 13.1131C50.777 12.8935 50.6182 12.7251 50.3992 12.7143C50.3943 12.7143 50.3795 12.7143 50.3745 12.7143C50.1674 12.7143 50.0086 12.8531 49.979 13.06L48.3356 25.3031C48.3218 25.4035 48.235 25.4794 48.1334 25.4794H44.6C44.5014 25.4794 44.4126 25.4026 44.3988 25.3051L42.6331 13.1171C42.6045 12.9152 42.4427 12.7743 42.2405 12.7743C42.2277 12.7743 42.2158 12.7743 42.205 12.7753C41.9949 12.7862 41.8351 12.9546 41.8351 13.1742L41.8292 25.2765C41.8292 25.3888 41.7384 25.4794 41.626 25.4794H36.5064C36.394 25.4794 36.3032 25.3888 36.3032 25.2765V0.737075C36.3032 0.624798 36.394 0.533203 36.5064 0.533203H44.4205C44.5231 0.533203 44.6049 0.60313 44.6217 0.702604C44.8624 2.17895 45.11 3.89068 45.3566 5.79052L45.9692 10.0009C45.9968 10.2018 46.1605 10.3437 46.3657 10.3437C46.5709 10.3437 46.7386 10.1999 46.7642 9.99303L47.9539 0.710483C47.9667 0.609039 48.0535 0.533203 48.1551 0.533203H56.1056C56.2191 0.533203 56.3098 0.624798 56.3098 0.737075V25.2745C56.3098 25.3868 56.2191 25.4774 56.1066 25.4774H50.9871L50.9861 25.4784Z" fill="#6236E9"/>
<path d="M92.2038 25.4421C92.1061 25.4421 92.0213 25.3721 92.0035 25.2756C91.4186 22.1417 90.8839 18.6178 90.4124 14.8014C90.3878 14.6004 90.2378 14.4626 90.0307 14.4507C90.0248 14.4507 90.0198 14.4507 90.0139 14.4507C89.8077 14.4507 89.645 14.5935 89.6174 14.7964C89.2918 17.2665 88.7976 20.886 88.1871 25.2648C88.1732 25.3633 88.0845 25.4401 87.9848 25.4401H80.6103C80.5068 25.4401 80.42 25.3623 80.4081 25.2599L77.6254 0.746047C77.6185 0.688923 77.6373 0.630815 77.6757 0.58748C77.7142 0.54513 77.7694 0.520508 77.8276 0.520508H83.397C83.5006 0.520508 83.5923 0.605208 83.6002 0.708621L84.5876 13.5693C84.6034 13.7869 84.7671 13.9396 84.9871 13.9396C85.2071 13.9396 85.3679 13.7889 85.3856 13.5732C85.6894 9.97049 86.1738 5.63896 86.8238 0.698772C86.8366 0.597329 86.9234 0.521493 87.025 0.521493H93.1034C93.2099 0.521493 93.2957 0.598314 93.3066 0.703697C93.4092 1.70631 93.6331 4.40194 93.9714 8.71476L94.364 14.04C94.3808 14.2459 94.5278 14.3897 94.7369 14.4094C94.7458 14.4094 94.7546 14.4104 94.7635 14.4104C94.9815 14.4104 95.1453 14.2587 95.163 14.041C95.5152 9.53517 96.0025 5.04507 96.6131 0.695817C96.6269 0.597329 96.7157 0.520508 96.8153 0.520508H102.315C102.373 0.520508 102.428 0.54513 102.466 0.58748C102.47 0.592404 102.475 0.597329 102.48 0.601268C102.511 0.641649 102.525 0.692863 102.519 0.744077L99.8377 25.2579C99.8258 25.3613 99.739 25.4401 99.6345 25.4401H92.2038V25.4421Z" fill="#6236E9"/>
<path d="M121.664 25.4784C121.552 25.4784 121.461 25.3878 121.461 25.2755V16.5199C121.461 16.4795 121.455 16.442 121.444 16.4056L116.964 0.794181C116.945 0.731149 116.957 0.668116 116.997 0.616902C117.037 0.563718 117.095 0.535156 117.16 0.535156H122.524C122.622 0.535156 122.706 0.605083 122.725 0.702587C123.321 3.82172 123.753 6.3125 124.008 8.10597C124.037 8.30788 124.199 8.4497 124.404 8.4497C124.608 8.4497 124.768 8.31181 124.8 8.11484C125.15 5.96976 125.633 3.47406 126.233 0.696678C126.253 0.603113 126.337 0.536141 126.433 0.536141H131.799C131.856 0.536141 131.907 0.558794 131.947 0.600159C131.951 0.607053 131.956 0.612962 131.96 0.619856C131.999 0.672055 132.01 0.735088 131.991 0.798121L127.344 16.4095C127.342 16.4164 127.34 16.4233 127.338 16.4312C127.331 16.4637 127.327 16.4942 127.327 16.5238V25.2784C127.327 25.3907 127.237 25.4813 127.124 25.4813H121.663L121.664 25.4784Z" fill="#6236E9"/>
<path d="M102.029 25.4794C101.97 25.4794 101.914 25.4538 101.876 25.4104C101.837 25.3661 101.819 25.308 101.827 25.2489L105.087 0.710474C105.1 0.609031 105.187 0.53418 105.29 0.53418H114.229C114.327 0.53418 114.415 0.611001 114.43 0.708504C114.43 0.711459 118.084 25.245 118.084 25.245C118.093 25.3031 118.076 25.3632 118.037 25.4085C117.999 25.4528 117.942 25.4784 117.883 25.4784H111.822C111.718 25.4784 111.626 25.3947 111.619 25.2913L111.311 21.3291C111.296 21.1222 111.12 20.9597 110.911 20.9597H109.126C108.917 20.9597 108.745 21.1163 108.726 21.3241L108.38 25.2932C108.37 25.4016 108.285 25.4794 108.177 25.4794H102.029H102.029ZM109.945 8.43395C109.736 8.43986 109.58 8.57971 109.553 8.7826C109.13 11.9845 108.841 14.5038 108.694 16.2687C108.683 16.3761 108.72 16.4893 108.798 16.5721C108.801 16.575 108.803 16.578 108.806 16.5799C108.884 16.6577 108.986 16.7001 109.093 16.7001H110.68C110.793 16.7001 110.897 16.6538 110.975 16.5701C111.04 16.5002 111.077 16.4105 111.08 16.316C111.082 16.2953 111.082 16.2746 111.08 16.2549C110.835 14.1138 110.59 11.6053 110.35 8.79934C110.332 8.58759 110.165 8.43395 109.952 8.43395C109.949 8.43395 109.947 8.43395 109.945 8.43395Z" fill="#6236E9"/>
<path d="M63.3431 25.4784C63.2307 25.4784 63.1399 25.3878 63.1399 25.2755V16.5199C63.1399 16.4795 63.134 16.442 63.1232 16.4056L58.6428 0.794181C58.6241 0.731149 58.6359 0.668116 58.6764 0.615917C58.7148 0.564703 58.774 0.535156 58.8381 0.535156H64.2023C64.3 0.535156 64.3838 0.605083 64.4025 0.702587C64.9974 3.81975 65.4294 6.31053 65.6859 8.10597C65.7145 8.30492 65.8723 8.44576 66.0735 8.4497C66.0795 8.4497 66.0864 8.4497 66.0903 8.4497C66.2856 8.4497 66.4454 8.31181 66.478 8.11484C66.8282 5.97271 67.3105 3.47701 67.9112 0.696678C67.931 0.603113 68.0148 0.536141 68.1105 0.536141H73.4747C73.5398 0.536141 73.598 0.565688 73.6384 0.618872C73.6779 0.671071 73.6887 0.734103 73.67 0.797136L69.0229 16.4086C69.021 16.4145 69.02 16.4204 69.018 16.4273C69.0101 16.4608 69.0062 16.4923 69.0062 16.5228V25.2775C69.0062 25.3897 68.9154 25.4803 68.803 25.4803H63.3421L63.3431 25.4784Z" fill="#6236E9"/>
</g>
<defs>
<clipPath id="clip0_4566_15373">
<rect width="132" height="26" fill="white"/>
</clipPath>
</defs>
</svg>
