<svg width="42" height="42" viewBox="0 0 42 42" fill="none" xmlns="http://www.w3.org/2000/svg">
<circle cx="21" cy="21" r="20.2841" stroke="#F0F0F0" stroke-width="1.43182"/>
<path d="M30.3904 18.1468C30.3904 12.8729 26.1465 8.5918 20.9222 8.5918C15.698 8.5918 11.4541 12.8729 11.4541 18.1468C11.4541 20.5914 12.3725 22.8126 13.8615 24.5003C15.8966 26.7835 17.7828 29.2033 19.2967 31.8588L19.8178 32.7771C20.3018 33.6209 21.5179 33.6209 22.0018 32.7771L22.5231 31.8588C24.0494 29.2033 25.9356 26.7835 27.9583 24.5003C29.4598 22.8126 30.3655 20.5914 30.3655 18.1468H30.3904Z" fill="#ACACAC"/>
<path d="M20.8787 21.8944C23.0204 21.8944 24.7566 20.1582 24.7566 18.0165C24.7566 15.8748 23.0204 14.1387 20.8787 14.1387C18.737 14.1387 17.001 15.8748 17.001 18.0165C17.001 20.1582 18.737 21.8944 20.8787 21.8944Z" fill="white"/>
</svg>
