<svg width="26" height="26" viewBox="0 0 26 26" fill="none" xmlns="http://www.w3.org/2000/svg">
<rect x="1" y="1" width="24" height="24" rx="10" fill="#C5C1DD"/>
<rect x="1" y="1" width="24" height="24" rx="10" stroke="#7B50FF" stroke-width="2" stroke-linejoin="bevel"/>
<path fill-rule="evenodd" clip-rule="evenodd" d="M11 12.002C11 11.4497 11.4477 11.002 12 11.002H14C14.5523 11.002 15 11.4497 15 12.002V14.002C15 14.5542 14.5523 15.002 14 15.002H12C11.4477 15.002 11 14.5542 11 14.002V12.002Z" stroke="white" stroke-width="1.3" stroke-linecap="round" stroke-linejoin="round"/>
<path d="M5.35001 13.0013C5.35037 13.3602 5.64167 13.651 6.00066 13.6506C6.35964 13.6502 6.65036 13.3589 6.65001 13L5.35001 13.0013ZM7.14401 9.1116L7.69012 9.4641L7.69044 9.46361L7.14401 9.1116ZM10.19 6.5336L9.93397 5.93615L9.93316 5.9365L10.19 6.5336ZM14.111 6.1336L14.2432 5.49718L14.2411 5.49676L14.111 6.1336ZM17.585 8.0506L17.1171 8.50174L17.1176 8.50227L17.585 8.0506ZM19.29 11.0006L18.6653 11.1802C18.7462 11.4617 19.0054 11.6543 19.2983 11.6505C19.5912 11.6468 19.8454 11.4476 19.9191 11.1641L19.29 11.0006ZM20.6291 8.4321C20.7194 8.08465 20.5109 7.72979 20.1635 7.6395C19.8161 7.54921 19.4612 7.75767 19.3709 8.10511L20.6291 8.4321ZM20.65 13.0004C20.6496 12.6414 20.3583 12.3507 19.9994 12.351C19.6404 12.3514 19.3496 12.6427 19.35 13.0017L20.65 13.0004ZM18.856 16.89L18.3099 16.5375L18.3096 16.538L18.856 16.89ZM15.81 19.468L16.066 20.0655L16.0668 20.0651L15.81 19.468ZM11.889 19.868L11.7568 20.5045L11.7589 20.5049L11.889 19.868ZM8.415 17.951L8.88295 17.4999L8.88244 17.4994L8.415 17.951ZM6.71 15.001L7.33471 14.8215C7.25379 14.54 6.99457 14.3473 6.70167 14.3511C6.40877 14.3548 6.15457 14.554 6.0809 14.8375L6.71 15.001ZM5.3709 17.5695C5.2806 17.917 5.48906 18.2719 5.83651 18.3621C6.18395 18.4524 6.53881 18.244 6.6291 17.8965L5.3709 17.5695ZM6.65001 13C6.64875 11.7457 7.00995 10.5179 7.69012 9.4641L6.59789 8.7591C5.78185 10.0234 5.34851 11.4965 5.35001 13.0013L6.65001 13ZM7.69044 9.46361C8.35681 8.42917 9.31651 7.61693 10.4469 7.1307L9.93316 5.9365C8.5653 6.5249 7.40396 7.50781 6.59757 8.7596L7.69044 9.46361ZM10.446 7.13105C11.5601 6.65362 12.7934 6.52781 13.9809 6.77045L14.2411 5.49676C12.7942 5.20111 11.2914 5.35441 9.93397 5.93615L10.446 7.13105ZM13.9788 6.77002C15.1753 7.0185 16.269 7.62201 17.1171 8.50174L18.053 7.59947C17.0234 6.5315 15.6956 5.79884 14.2432 5.49718L13.9788 6.77002ZM17.1176 8.50227C17.8448 9.25486 18.3762 10.1744 18.6653 11.1802L19.9147 10.821C19.5669 9.61085 18.9274 8.50448 18.0524 7.59894L17.1176 8.50227ZM19.9191 11.1641L20.6291 8.4321L19.3709 8.10511L18.6609 10.8371L19.9191 11.1641ZM19.35 13.0017C19.3513 14.2559 18.9901 15.4838 18.3099 16.5375L19.4021 17.2425C20.2182 15.9783 20.6515 14.5051 20.65 13.0004L19.35 13.0017ZM18.3096 16.538C17.6432 17.5725 16.6835 18.3847 15.5532 18.8709L16.0668 20.0651C17.4347 19.4767 18.596 18.4938 19.4024 17.2421L18.3096 16.538ZM15.554 18.8706C14.4399 19.348 13.2066 19.4738 12.0191 19.2312L11.7589 20.5049C13.2058 20.8005 14.7086 20.6472 16.066 20.0655L15.554 18.8706ZM12.0212 19.2316C10.8247 18.9831 9.73106 18.3796 8.88295 17.4999L7.94705 18.4022C8.97664 19.4702 10.3044 20.2028 11.7568 20.5045L12.0212 19.2316ZM8.88244 17.4994C8.15525 16.7468 7.62381 15.8273 7.33471 14.8215L6.08529 15.1806C6.43314 16.3908 7.07259 17.4972 7.94756 18.4027L8.88244 17.4994ZM6.0809 14.8375L5.3709 17.5695L6.6291 17.8965L7.3391 15.1645L6.0809 14.8375Z" fill="white"/>
</svg>
