<svg width="24" height="24" viewBox="0 0 24 24" fill="none" xmlns="http://www.w3.org/2000/svg">
<rect width="24" height="24" rx="12" fill="#D4D4D4"/>
<path fill-rule="evenodd" clip-rule="evenodd" d="M9.99902 11.0001C9.99902 10.4478 10.4468 10 10.9991 10H12.9993C13.5517 10 13.9995 10.4478 13.9995 11.0001V13.0003C13.9995 13.5527 13.5517 14.0004 12.9993 14.0004H10.9991C10.4468 14.0004 9.99902 13.5527 9.99902 13.0003V11.0001Z" stroke="#ACACAC" stroke-width="1.5" stroke-linecap="round" stroke-linejoin="round"/>
<path d="M4.24805 12.0011C4.24847 12.4153 4.58459 12.7508 4.9988 12.7504C5.41301 12.75 5.74847 12.4138 5.74805 11.9996L4.24805 12.0011ZM6.14218 8.11096L6.77231 8.5177L6.77268 8.51713L6.14218 8.11096ZM9.18851 5.53268L8.89308 4.84332L8.89214 4.84372L9.18851 5.53268ZM13.1099 5.13264L13.2624 4.39831L13.2601 4.39782L13.1099 5.13264ZM16.5843 7.04985L16.0444 7.57039L16.045 7.571L16.5843 7.04985ZM18.2895 10.0002L17.5687 10.2074C17.662 10.5322 17.9611 10.7544 18.2991 10.7501C18.6371 10.7458 18.9304 10.5159 19.0154 10.1888L18.2895 10.0002ZM19.7255 7.45652C19.8296 7.05562 19.5891 6.64617 19.1882 6.54198C18.7873 6.4378 18.3779 6.67833 18.2737 7.07923L19.7255 7.45652ZM19.7496 11.9996C19.7492 11.5854 19.413 11.25 18.9988 11.2504C18.5846 11.2508 18.2492 11.5869 18.2496 12.0011L19.7496 11.9996ZM17.8554 15.8898L17.2253 15.4831L17.2249 15.4836L17.8554 15.8898ZM14.8091 18.4681L15.1045 19.1574L15.1055 19.157L14.8091 18.4681ZM10.8877 18.8681L10.7352 19.6024L10.7375 19.6029L10.8877 18.8681ZM7.41331 16.9509L7.95325 16.4304L7.95266 16.4298L7.41331 16.9509ZM5.70812 14.0006L6.42894 13.7934C6.33557 13.4686 6.03647 13.2463 5.69851 13.2506C5.36056 13.255 5.06725 13.4848 4.98224 13.8119L5.70812 14.0006ZM4.27216 16.5442C4.16797 16.9451 4.4085 17.3546 4.8094 17.4588C5.2103 17.563 5.61975 17.3224 5.72393 16.9215L4.27216 16.5442ZM5.74805 11.9996C5.74682 10.7645 6.1025 9.5554 6.77231 8.5177L5.51204 7.70423C4.68547 8.98481 4.24653 10.477 4.24805 12.0011L5.74805 11.9996ZM6.77268 8.51713C7.42836 7.49929 8.37265 6.70008 9.48487 6.22165L8.89214 4.84372C7.50588 5.44004 6.32892 6.43617 5.51167 7.7048L6.77268 8.51713ZM9.48393 6.22205C10.5794 5.75259 11.7921 5.62887 12.9598 5.86746L13.2601 4.39782C11.793 4.09807 10.2694 4.2535 8.89308 4.84332L9.48393 6.22205ZM12.9574 5.86697C14.1343 6.11139 15.2101 6.70504 16.0444 7.57039L17.1243 6.52931C16.0806 5.44675 14.7347 4.70408 13.2624 4.39831L12.9574 5.86697ZM16.045 7.571C16.7609 8.31192 17.2841 9.21716 17.5687 10.2074L19.0103 9.79298C18.6579 8.56695 18.0101 7.44609 17.1237 6.5287L16.045 7.571ZM19.0154 10.1888L19.7255 7.45652L18.2737 7.07923L17.5636 9.81152L19.0154 10.1888ZM18.2496 12.0011C18.2508 13.2362 17.8951 14.4454 17.2253 15.4831L18.4856 16.2965C19.3122 15.0159 19.7511 13.5238 19.7496 11.9996L18.2496 12.0011ZM17.2249 15.4836C16.5693 16.5015 15.625 17.3007 14.5127 17.7791L15.1055 19.157C16.4917 18.5607 17.6687 17.5646 18.4859 16.296L17.2249 15.4836ZM14.5137 17.7787C13.4182 18.2482 12.2055 18.3719 11.0378 18.1333L10.7375 19.6029C12.2046 19.9027 13.7282 19.7473 15.1045 19.1574L14.5137 17.7787ZM11.0402 18.1338C9.86331 17.8894 8.7875 17.2957 7.95325 16.4304L6.87336 17.4714C7.91702 18.554 9.26288 19.2967 10.7352 19.6024L11.0402 18.1338ZM7.95266 16.4298C7.23675 15.6888 6.71355 14.7836 6.42894 13.7934L4.98731 14.2078C5.33971 15.4338 5.98753 16.5547 6.87395 17.4721L7.95266 16.4298ZM4.98224 13.8119L4.27216 16.5442L5.72393 16.9215L6.43401 14.1892L4.98224 13.8119Z" fill="#ACACAC"/>
</svg>
