<svg width="212" height="194" viewBox="0 0 212 194" fill="none" xmlns="http://www.w3.org/2000/svg">
<rect x="40.9312" y="17.9805" width="105.6" height="54.0092" rx="27.0046" transform="rotate(-9.8029 40.9312 17.9805)" fill="#7B50FF"/>
<path d="M67.6829 51.7129C68.5144 52.5064 69.537 53.0425 70.7214 53.3049C71.8953 53.566 73.1862 53.5775 74.5595 53.3402C76.0061 53.0902 77.2516 52.6262 78.2613 51.9603C79.2784 51.29 80.0436 50.4368 80.5358 49.4259C81.0272 48.4161 81.2435 47.3427 81.1798 46.2361C81.1163 45.155 80.863 43.3225 80.4252 40.7887L79.6779 36.4637C79.2291 33.8666 78.8467 32.0309 78.5406 31.009C78.227 29.9609 77.6466 29.0272 76.8164 28.2356C75.9849 27.4421 74.9624 26.907 73.7779 26.6436C72.6038 26.3815 71.3129 26.37 69.9405 26.6071C68.4939 26.8571 67.2485 27.3211 66.2388 27.987C65.2217 28.6573 64.4565 29.5105 63.9643 30.5214C63.4721 31.5324 63.2556 32.6048 63.3205 33.7122C63.3836 34.7914 63.637 36.6238 64.0751 39.1596L64.8224 43.4846C65.2713 46.0827 65.6536 47.9174 65.9596 48.9393C66.2733 49.9874 66.8527 50.9213 67.6839 51.7128L67.6829 51.7129ZM70.3559 33.9742C70.0717 32.3295 70.1411 31.8403 70.2078 31.6952C70.3152 31.4605 70.5025 31.3231 70.7787 31.2753C71.2035 31.2019 71.3723 31.3879 71.4619 31.5346C71.5802 31.7293 71.7738 32.2598 72.0203 33.6866L74.0272 45.302C74.2796 46.7625 74.38 47.7037 74.327 48.0993C74.2825 48.4261 74.0946 48.6075 73.7352 48.6696C73.2738 48.7493 73.1065 48.5539 73.0206 48.3994C72.9052 48.192 72.7038 47.5691 72.3941 45.7769L70.3549 33.9743L70.3559 33.9742Z" fill="white"/>
<path d="M100.384 21.8941L92.4038 23.273C92.1523 23.3165 91.971 23.5416 91.9824 23.7966L92.4009 33.336C92.4047 33.417 92.3475 33.4401 92.3128 33.4461L92.3118 33.4463C92.2772 33.4523 92.2167 33.4505 92.1923 33.3741L90.8477 29.2513C90.2609 27.354 89.7134 25.6723 89.2235 24.2539C89.1419 24.0171 88.9035 23.8768 88.6559 23.9196L80.711 25.2923C80.4347 25.3401 80.2488 25.6037 80.2967 25.8809L84.5592 50.5505C84.6069 50.8267 84.8705 51.0127 85.1467 50.9649L90.2856 50.077C90.5619 50.0293 90.7478 49.7657 90.7001 49.4894L88.6038 37.3215C88.5891 37.2363 88.6474 37.2079 88.6837 37.1996C88.7198 37.1903 88.7847 37.1882 88.8111 37.2703L92.7006 49.2172C92.7785 49.4556 93.0234 49.604 93.2709 49.5612L96.8176 48.9484C97.0681 48.9051 97.2487 48.6812 97.2396 48.4279L96.7626 35.8353C96.7598 35.7481 96.8208 35.7294 96.8588 35.7249C96.8958 35.7205 96.9602 35.7277 96.975 35.8129L99.0936 48.0392C99.1413 48.3155 99.4049 48.5014 99.6811 48.4537L104.82 47.5657C105.096 47.518 105.282 47.2544 105.234 46.9782L100.972 22.3086C100.924 22.0323 100.661 21.8454 100.384 21.8931L100.384 21.8941Z" fill="white"/>
<path d="M128.351 17.2459C128.237 17.1563 128.091 17.1194 127.949 17.144L122.429 18.0978C122.18 18.1407 121.998 18.3638 122.006 18.6154C122.149 23.1029 122.44 27.7076 122.87 32.3006C122.878 32.3869 122.818 32.4104 122.782 32.4167C122.749 32.4194 122.682 32.4208 122.66 32.3378L121.341 27.0512C120.252 22.776 119.559 20.1028 119.279 19.1049C119.208 18.853 118.961 18.6969 118.703 18.7416L112.601 19.7958C112.351 19.839 112.17 20.0641 112.18 20.3183C112.386 25.3986 112.653 29.8422 112.974 33.525C112.981 33.6094 112.922 33.6328 112.887 33.639C112.85 33.6453 112.785 33.6432 112.765 33.5591L109.54 20.801C109.475 20.545 109.22 20.379 108.96 20.424L103.369 21.3899C103.227 21.4146 103.101 21.4995 103.024 21.6219C102.947 21.7453 102.926 21.8947 102.967 22.0334L110.019 46.1956C110.091 46.4441 110.338 46.5983 110.594 46.5542L117.996 45.2752C118.245 45.2322 118.426 45.0091 118.418 44.7566C118.264 40.0518 118.134 36.4267 118.035 33.9832C118.033 33.9021 118.089 33.8802 118.124 33.8742C118.16 33.87 118.221 33.8696 118.245 33.9481C119.384 37.7149 120.536 41.1705 121.667 44.2207C121.753 44.4497 121.989 44.5862 122.231 44.5444L129.69 43.2557C129.946 43.2114 130.127 42.9823 130.112 42.7219L128.545 17.6131C128.536 17.4688 128.466 17.335 128.353 17.2455L128.351 17.2459Z" fill="white"/>
<rect x="107.992" y="65.8984" width="105.6" height="54.0092" rx="27.0046" transform="rotate(11.8174 107.992 65.8984)" fill="#CEA8FF"/>
<path d="M120.432 107.115C120.913 108.159 121.666 109.034 122.671 109.715C123.666 110.39 124.862 110.876 126.226 111.162C127.663 111.462 128.991 111.49 130.175 111.243C131.368 110.995 132.394 110.483 133.224 109.725C134.053 108.967 134.649 108.049 134.998 106.997C135.337 105.968 135.777 104.171 136.303 101.655L137.202 97.3586C137.742 94.7788 138.063 92.9313 138.155 91.8686C138.249 90.7786 138.054 89.6968 137.574 88.6549C137.093 87.6109 136.34 86.7368 135.335 86.0555C134.341 85.3792 133.145 84.8929 131.782 84.6077C130.345 84.307 129.016 84.2795 127.832 84.5266C126.639 84.775 125.614 85.2861 124.783 86.0446C123.953 86.8031 123.357 87.7203 123.009 88.7737C122.67 89.8002 122.231 91.5971 121.704 94.1159L120.805 98.4119C120.265 100.993 119.944 102.839 119.852 103.902C119.758 104.992 119.952 106.074 120.433 107.116L120.432 107.115ZM129.453 91.6094C129.795 89.9758 130.04 89.5466 130.155 89.4362C130.342 89.2576 130.566 89.1989 130.841 89.2563C131.263 89.3446 131.351 89.5797 131.38 89.749C131.418 89.9736 131.403 90.5381 131.107 91.9553L128.693 103.493C128.389 104.944 128.136 105.856 127.941 106.204C127.779 106.491 127.537 106.591 127.18 106.516C126.722 106.42 126.638 106.177 126.615 106.002C126.585 105.766 126.627 105.113 126.999 103.333L129.452 91.6092L129.453 91.6094Z" fill="white"/>
<path d="M161.82 91.4438L153.893 89.7852C153.643 89.7329 153.392 89.8753 153.308 90.1166L150.182 99.1391C150.156 99.2157 150.094 99.2162 150.06 99.209L150.059 99.2088C150.025 99.2016 149.969 99.1776 149.974 99.0977L150.244 94.7694C150.397 92.7895 150.508 91.0243 150.575 89.5252C150.586 89.275 150.416 89.0567 150.17 89.0053L142.279 87.3541C142.004 87.2967 141.734 87.4733 141.677 87.7486L136.55 112.253C136.492 112.528 136.669 112.798 136.943 112.855L142.048 113.923C142.322 113.98 142.592 113.804 142.649 113.529L145.184 101.445C145.202 101.361 145.266 101.356 145.303 101.361C145.34 101.366 145.401 101.388 145.396 101.474L144.61 114.013C144.594 114.264 144.767 114.492 145.013 114.543L148.536 115.28C148.785 115.333 149.035 115.191 149.12 114.952L153.316 103.07C153.346 102.988 153.41 102.993 153.447 103.002C153.483 103.012 153.54 103.042 153.522 103.127L150.987 115.274C150.929 115.548 151.106 115.818 151.38 115.876L156.485 116.944C156.759 117.001 157.029 116.824 157.087 116.55L162.214 92.0455C162.271 91.7711 162.095 91.5002 161.82 91.4428L161.82 91.4438Z" fill="white"/>
<path d="M189.532 97.427C189.459 97.302 189.337 97.2138 189.195 97.1842L183.712 96.037C183.465 95.9853 183.214 96.1258 183.129 96.3625C181.608 100.587 180.182 104.975 178.889 109.403C178.865 109.486 178.801 109.486 178.765 109.479C178.733 109.469 178.67 109.445 178.681 109.36L179.402 103.96C179.965 99.5841 180.306 96.8436 180.414 95.8129C180.44 95.5526 180.268 95.3163 180.011 95.2626L173.951 93.9946C173.702 93.9425 173.45 94.085 173.366 94.325C171.686 99.1238 170.297 103.353 169.238 106.895C169.214 106.976 169.151 106.976 169.115 106.969C169.079 106.961 169.02 106.936 169.031 106.85L170.734 93.801C170.768 93.5392 170.592 93.2909 170.334 93.2368L164.781 92.0749C164.639 92.0453 164.49 92.0779 164.374 92.1634C164.257 92.2498 164.183 92.381 164.17 92.5251L161.823 117.586C161.799 117.843 161.971 118.078 162.225 118.131L169.578 119.669C169.825 119.721 170.076 119.58 170.161 119.343C171.752 114.912 172.967 111.494 173.775 109.186C173.802 109.11 173.863 109.11 173.897 109.117C173.932 109.127 173.989 109.149 173.982 109.231C173.654 113.152 173.451 116.789 173.379 120.042C173.374 120.286 173.544 120.5 173.784 120.55L181.193 122.1C181.448 122.154 181.7 122.007 181.782 121.759L189.577 97.8399C189.622 97.7025 189.606 97.5524 189.534 97.4274L189.532 97.427Z" fill="white"/>
<rect x="0.000366211" y="140.451" width="105.6" height="54.0092" rx="27.0046" transform="rotate(-9.52814 0.000366211 140.451)" fill="#FFE589"/>
<path d="M26.59 174.312C27.4177 175.109 28.4377 175.65 29.6208 175.918C30.7935 176.185 32.0843 176.202 33.4588 175.972C34.9066 175.729 36.1542 175.271 37.1671 174.61C38.1874 173.944 38.9567 173.095 39.4538 172.086C39.95 171.079 40.1714 170.006 40.113 168.899C40.0548 167.818 39.8102 165.984 39.3845 163.449L38.658 159.12C38.2217 156.521 37.8481 154.683 37.5469 153.66C37.2383 152.61 36.6624 151.674 35.836 150.878C35.0083 150.081 33.9884 149.541 32.8052 149.272C31.6323 149.004 30.3415 148.986 28.968 149.217C27.5203 149.46 26.2726 149.918 25.2597 150.579C24.2394 151.244 23.4701 152.094 22.9731 153.102C22.476 154.111 22.2544 155.182 22.314 156.29C22.3719 157.37 22.6165 159.203 23.0425 161.741L23.769 166.07C24.2054 168.67 24.5789 170.506 24.8801 171.53C25.1887 172.579 25.7637 173.516 26.591 174.311L26.59 174.312ZM29.348 156.586C29.0717 154.94 29.1435 154.451 29.2109 154.306C29.3194 154.072 29.5074 153.935 29.7838 153.889C30.209 153.818 30.3768 154.004 30.4657 154.152C30.5831 154.347 30.7741 154.878 31.0138 156.306L32.965 167.931C33.2104 169.393 33.3063 170.334 33.2514 170.73C33.2054 171.056 33.0166 171.237 32.6569 171.297C32.1951 171.375 32.0287 171.179 31.9436 171.024C31.8292 170.816 31.6307 170.192 31.3297 168.398L29.347 156.586L29.348 156.586Z" fill="white"/>
<path d="M59.4341 144.649L51.447 145.99C51.1953 146.032 51.0128 146.256 51.023 146.511L51.3958 156.053C51.3992 156.134 51.3419 156.156 51.3072 156.162L51.3062 156.162C51.2715 156.168 51.2111 156.166 51.187 156.09L49.8622 151.96C49.2845 150.06 48.745 148.376 48.262 146.955C48.1815 146.718 47.9438 146.577 47.696 146.618L39.7446 147.953C39.4681 147.999 39.2809 148.262 39.3275 148.54L43.4716 173.229C43.518 173.506 43.7807 173.693 44.0572 173.647L49.2003 172.783C49.4767 172.737 49.6639 172.474 49.6175 172.198L47.5796 160.02C47.5653 159.935 47.6238 159.906 47.6601 159.898C47.6963 159.889 47.7612 159.887 47.7872 159.97L51.6194 171.935C51.6961 172.174 51.9403 172.323 52.188 172.282L55.7376 171.686C55.9883 171.644 56.17 171.421 56.1621 171.167L55.7455 158.573C55.7431 158.486 55.8042 158.467 55.8422 158.463C55.8792 158.459 55.9436 158.466 55.9579 158.551L58.0179 170.788C58.0643 171.064 58.327 171.251 58.6035 171.205L63.7465 170.342C64.023 170.295 64.2102 170.033 64.1638 169.756L60.0197 145.066C59.9733 144.79 59.7104 144.602 59.4339 144.648L59.4341 144.649Z" fill="white"/>
<path d="M87.4226 140.136C87.3097 140.046 87.1637 140.008 87.021 140.032L81.4965 140.959C81.2477 141.001 81.065 141.223 81.0715 141.475C81.1931 145.963 81.4619 150.569 81.8694 155.164C81.8768 155.25 81.8175 155.274 81.7808 155.28C81.7476 155.282 81.6806 155.283 81.6595 155.2L80.3656 149.907C79.2977 145.627 78.6171 142.95 78.3424 141.951C78.2726 141.699 78.0261 141.542 77.7675 141.585L71.6612 142.61C71.4105 142.652 71.228 142.876 71.2371 143.131C71.4185 148.212 71.6643 152.657 71.9679 156.341C71.9749 156.425 71.9156 156.448 71.88 156.454C71.8433 156.461 71.7787 156.458 71.7584 156.374L68.5946 143.601C68.5312 143.344 68.2769 143.177 68.0163 143.221L62.4213 144.16C62.2786 144.184 62.1522 144.268 62.0749 144.39C61.9977 144.513 61.9759 144.663 62.0165 144.801L68.952 168.997C69.0233 169.246 69.2694 169.401 69.5251 169.358L76.9335 168.115C77.1822 168.073 77.365 167.851 77.3583 167.598C77.2267 162.893 77.1143 159.267 77.0271 156.823C77.0247 156.742 77.0812 156.721 77.1158 156.715C77.1518 156.711 77.213 156.711 77.2363 156.789C78.3575 160.561 79.4927 164.023 80.6098 167.078C80.6942 167.308 80.9302 167.445 81.172 167.405L88.6369 166.152C88.8936 166.109 89.0753 165.88 89.0612 165.62L87.6148 140.504C87.6069 140.359 87.5375 140.225 87.4246 140.135L87.4226 140.136Z" fill="white"/>
</svg>
