<svg width="30" height="30" viewBox="0 0 30 30" fill="none" xmlns="http://www.w3.org/2000/svg">
<path fill-rule="evenodd" clip-rule="evenodd" d="M15.0007 8.33285C15.0007 10.1735 13.5085 11.6657 11.6678 11.6657C9.82713 11.6657 8.33496 10.1735 8.33496 8.33285C8.33496 6.49217 9.82713 5 11.6678 5C13.5085 5 15.0007 6.49217 15.0007 8.33285Z" stroke="#ACACAC" stroke-width="2" stroke-linecap="round" stroke-linejoin="round"/>
<path fill-rule="evenodd" clip-rule="evenodd" d="M18.3328 19.3337C18.3328 21.9051 15.3486 24.0008 11.6657 24.0008C7.98285 24.0008 5 21.9108 5 19.3337C5 16.7565 7.98428 14.668 11.6671 14.668C15.35 14.668 18.3328 16.7565 18.3328 19.3337Z" stroke="#ACACAC" stroke-width="2" stroke-linecap="round" stroke-linejoin="round"/>
<path fill-rule="evenodd" clip-rule="evenodd" d="M22.0557 11.4434C22.0557 12.5479 21.1602 13.4434 20.0557 13.4434C18.9511 13.4434 18.0557 12.5479 18.0557 11.4434C18.0557 10.3388 18.9511 9.44336 20.0557 9.44336C20.5861 9.44336 21.0948 9.65407 21.4699 10.0291C21.8449 10.4042 22.0557 10.9129 22.0557 11.4434Z" stroke="#ACACAC" stroke-width="2" stroke-linecap="round" stroke-linejoin="round"/>
<path d="M21 22.6661C23.0196 22.8319 24.7995 21.3483 25 19.3318C24.7987 17.3159 23.0191 15.8331 21 15.999" stroke="#ACACAC" stroke-width="2" stroke-linecap="round" stroke-linejoin="round"/>
</svg>
