<svg width="16" height="14" viewBox="0 0 16 14" fill="none" xmlns="http://www.w3.org/2000/svg">
<path d="M13.569 1.31842C13.8331 1.06696 14.1846 0.927945 14.5493 0.930704C14.9139 0.933464 15.2633 1.07778 15.5236 1.33321C15.7839 1.58864 15.9347 1.93519 15.9444 2.29975C15.954 2.6643 15.8217 3.01835 15.5752 3.28717L8.09399 12.6434C7.96534 12.782 7.81008 12.8932 7.63748 12.9704C7.46488 13.0475 7.27849 13.0891 7.08946 13.0926C6.90042 13.0961 6.71262 13.0615 6.53728 12.9907C6.36194 12.92 6.20267 12.8146 6.06898 12.6809L1.10773 7.71967C0.969572 7.59093 0.858755 7.43568 0.781895 7.26318C0.705035 7.09068 0.663707 6.90447 0.660375 6.71565C0.657044 6.52683 0.691778 6.33928 0.762505 6.16417C0.833232 5.98907 0.938503 5.83001 1.07204 5.69647C1.20557 5.56294 1.36464 5.45767 1.53974 5.38694C1.71484 5.31621 1.9024 5.28148 2.09121 5.28481C2.28003 5.28814 2.46625 5.32947 2.63874 5.40633C2.81124 5.48319 2.96649 5.59401 3.09523 5.73217L7.02149 9.65654L13.5334 1.35967L13.569 1.31842Z" fill="#7B50FF"/>
</svg>
