<svg width="296" height="44" viewBox="0 0 296 44" fill="none" xmlns="http://www.w3.org/2000/svg">
<rect x="0.5" y="0.5" width="295" height="43" rx="5.5" fill="white"/>
<rect x="0.5" y="0.5" width="295" height="43" rx="5.5" stroke="#7B50FF"/>
<path d="M119.072 19.698H121.69V21.168H119.072V19.698ZM119.002 22.932H121.648V24.416H119.002V22.932ZM123.454 16.268H125.232V29.232H123.454V16.268ZM120.794 16.548H122.53V28.658H120.794V16.548ZM117.868 17.794H119.646C119.646 19.026 119.501 20.174 119.212 21.238C118.932 22.2927 118.447 23.2633 117.756 24.15C117.075 25.0367 116.132 25.8347 114.928 26.544L113.878 25.242C114.858 24.654 115.637 24.0147 116.216 23.324C116.804 22.624 117.224 21.854 117.476 21.014C117.737 20.1647 117.868 19.2173 117.868 18.172V17.794ZM114.62 17.794H118.484V19.292H114.62V17.794ZM134.081 19.404H136.545V20.916H134.081V19.404ZM136.027 16.282H137.903V23.982H136.027V16.282ZM133.507 24.262C134.422 24.262 135.21 24.36 135.873 24.556C136.536 24.752 137.044 25.0367 137.399 25.41C137.763 25.7833 137.945 26.2313 137.945 26.754C137.945 27.5567 137.548 28.1727 136.755 28.602C135.962 29.0407 134.879 29.26 133.507 29.26C132.135 29.26 131.052 29.0407 130.259 28.602C129.466 28.1727 129.069 27.5567 129.069 26.754C129.069 26.2313 129.246 25.7833 129.601 25.41C129.965 25.0367 130.478 24.752 131.141 24.556C131.804 24.36 132.592 24.262 133.507 24.262ZM133.507 25.676C132.947 25.676 132.476 25.718 132.093 25.802C131.71 25.8767 131.416 25.9933 131.211 26.152C131.015 26.3107 130.917 26.5113 130.917 26.754C130.917 26.9967 131.015 27.202 131.211 27.37C131.416 27.5287 131.71 27.65 132.093 27.734C132.476 27.8087 132.947 27.846 133.507 27.846C134.067 27.846 134.538 27.8087 134.921 27.734C135.304 27.65 135.593 27.5287 135.789 27.37C135.985 27.202 136.083 26.9967 136.083 26.754C136.083 26.5113 135.985 26.3107 135.789 26.152C135.593 25.9933 135.304 25.8767 134.921 25.802C134.538 25.718 134.067 25.676 133.507 25.676ZM130.049 17.57H131.561V18.396C131.561 19.2173 131.43 20.0013 131.169 20.748C130.908 21.4947 130.506 22.1527 129.965 22.722C129.433 23.282 128.752 23.702 127.921 23.982L126.983 22.512C127.515 22.3347 127.972 22.0967 128.355 21.798C128.747 21.4993 129.064 21.168 129.307 20.804C129.559 20.4307 129.746 20.0387 129.867 19.628C129.988 19.2173 130.049 18.8067 130.049 18.396V17.57ZM130.441 17.57H131.925V18.382C131.925 18.8953 132.028 19.3993 132.233 19.894C132.438 20.3887 132.756 20.8367 133.185 21.238C133.624 21.6393 134.184 21.9567 134.865 22.19L133.955 23.646C133.152 23.3753 132.49 22.9787 131.967 22.456C131.454 21.924 131.071 21.308 130.819 20.608C130.567 19.8987 130.441 19.1567 130.441 18.382V17.57ZM127.487 17.066H134.459V18.536H127.487V17.066ZM143.304 26.306H155.05V27.818H143.304V26.306ZM148.232 23.842H150.08V26.908H148.232V23.842ZM144.634 17.108H153.72V21.434H146.496V23.604H144.648V19.978H151.872V18.592H144.634V17.108ZM144.648 22.876H154.014V24.36H144.648V22.876ZM157.487 17.458H165.691V18.942H157.487V17.458ZM156.283 26.04H168.015V27.552H156.283V26.04ZM164.711 17.458H166.573V18.998C166.573 19.6047 166.563 20.2207 166.545 20.846C166.535 21.4713 166.498 22.1387 166.433 22.848C166.377 23.5573 166.265 24.36 166.097 25.256L164.235 25.088C164.403 24.2573 164.515 23.492 164.571 22.792C164.636 22.092 164.673 21.434 164.683 20.818C164.701 20.1927 164.711 19.586 164.711 18.998V17.458ZM178.166 16.282H180.028V25.592H178.166V16.282ZM171.39 27.524H180.364V29.022H171.39V27.524ZM171.39 24.668H173.252V28.14H171.39V24.668ZM172.972 17.108C173.634 17.108 174.232 17.248 174.764 17.528C175.296 17.808 175.716 18.1953 176.024 18.69C176.341 19.1847 176.5 19.754 176.5 20.398C176.5 21.0233 176.341 21.588 176.024 22.092C175.716 22.5867 175.296 22.9787 174.764 23.268C174.232 23.548 173.634 23.688 172.972 23.688C172.309 23.688 171.712 23.548 171.18 23.268C170.648 22.9787 170.223 22.5867 169.906 22.092C169.598 21.588 169.444 21.0233 169.444 20.398C169.444 19.754 169.598 19.1847 169.906 18.69C170.223 18.1953 170.648 17.808 171.18 17.528C171.712 17.248 172.309 17.108 172.972 17.108ZM172.972 18.704C172.654 18.704 172.365 18.774 172.104 18.914C171.842 19.0447 171.637 19.236 171.488 19.488C171.338 19.7307 171.264 20.034 171.264 20.398C171.264 20.7433 171.338 21.042 171.488 21.294C171.637 21.5367 171.842 21.728 172.104 21.868C172.365 21.9987 172.654 22.064 172.972 22.064C173.289 22.064 173.578 21.9987 173.84 21.868C174.101 21.728 174.306 21.5367 174.456 21.294C174.605 21.042 174.68 20.7433 174.68 20.398C174.68 20.034 174.605 19.7307 174.456 19.488C174.306 19.236 174.101 19.0447 173.84 18.914C173.578 18.774 173.289 18.704 172.972 18.704Z" fill="#6236E9"/>
</svg>
